<?xml version="1.0" encoding="UTF-8" standalone="no"?>
<!DOCTYPE svg PUBLIC "-//W3C//DTD SVG 1.1//EN" "http://www.w3.org/Graphics/SVG/1.1/DTD/svg11.dtd">
<svg width="100%" height="100%" viewBox="0 0 209 209" version="1.1" xmlns="http://www.w3.org/2000/svg" xmlns:xlink="http://www.w3.org/1999/xlink" xml:space="preserve" style="fill-rule:evenodd;clip-rule:evenodd;stroke-linejoin:round;stroke-miterlimit:1.41421;">
    <g transform="matrix(4.26703,0,0,4.26703,16.6925,19.8928)">
        <path d="M24.9,16.6L21.9,16.6L21.9,14.7C21.9,14 22.4,13.8 22.7,13.8C23,13.8 24.8,13.8 24.8,13.8L24.8,10.6L21.9,10.6C18.7,10.6 18,13 18,14.5L18,16.6L16.1,16.6L16.1,19.9L18,19.9C18,24.2 18,29.3 18,29.3L21.9,29.3C21.9,29.3 21.9,24.1 21.9,19.9L24.5,19.9L24.9,16.6Z" style="fill:rgb(0,194,202);fill-rule:nonzero;"/>
    </g>
    <g transform="matrix(2.57358,0,0,2.57358,-2725.85,-19554.2)">
        <path d="M1099.77,7600.38L1099.89,7600.38L1100.01,7600.39L1100.13,7600.39L1100.26,7600.39L1100.38,7600.39L1100.5,7600.39L1100.62,7600.4L1100.75,7600.4L1100.87,7600.4L1100.99,7600.41L1101.12,7600.41L1101.24,7600.42L1101.36,7600.42L1101.48,7600.43L1101.6,7600.43L1101.72,7600.44L1101.85,7600.45L1101.97,7600.45L1102.09,7600.46L1102.21,7600.47L1102.33,7600.48L1102.45,7600.49L1102.57,7600.49L1102.69,7600.5L1102.82,7600.51L1102.94,7600.52L1103.06,7600.53L1103.18,7600.55L1103.3,7600.56L1103.42,7600.57L1103.54,7600.58L1103.66,7600.59L1103.78,7600.61L1103.9,7600.62L1104.02,7600.63L1104.14,7600.65L1104.26,7600.66L1104.38,7600.68L1104.5,7600.69L1104.61,7600.7L1104.73,7600.72L1104.85,7600.74L1104.97,7600.75L1105.09,7600.77L1105.21,7600.79L1105.33,7600.81L1105.44,7600.82L1105.56,7600.84L1105.68,7600.86L1105.8,7600.88L1105.92,7600.9L1106.04,7600.92L1106.15,7600.94L1106.27,7600.96L1106.39,7600.98L1106.51,7601L1106.62,7601.02L1106.74,7601.04L1106.86,7601.07L1106.97,7601.09L1107.09,7601.11L1107.21,7601.14L1107.32,7601.16L1107.44,7601.18L1107.56,7601.21L1107.67,7601.23L1107.79,7601.26L1107.9,7601.28L1108.02,7601.31L1108.13,7601.33L1108.25,7601.36L1108.36,7601.39L1108.48,7601.41L1108.59,7601.44L1108.71,7601.47L1108.82,7601.5L1108.94,7601.53L1109.05,7601.56L1109.17,7601.59L1109.28,7601.61L1109.39,7601.64L1109.51,7601.67L1109.62,7601.7L1109.74,7601.74L1109.85,7601.77L1109.96,7601.8L1110.08,7601.83L1110.19,7601.86L1110.3,7601.9L1110.41,7601.93L1110.53,7601.96L1110.64,7602L1110.75,7602.03L1110.86,7602.06L1110.98,7602.1L1111.09,7602.13L1111.2,7602.17L1111.31,7602.2L1111.42,7602.24L1111.53,7602.28L1111.64,7602.31L1111.76,7602.35L1111.87,7602.39L1111.98,7602.43L1112.09,7602.46L1112.2,7602.5L1112.31,7602.54L1112.42,7602.58L1112.53,7602.62L1112.64,7602.66L1112.75,7602.7L1112.86,7602.74L1112.96,7602.78L1113.07,7602.82L1113.18,7602.86L1113.29,7602.9L1113.4,7602.94L1113.51,7602.99L1113.62,7603.03L1113.73,7603.07L1113.83,7603.12L1113.94,7603.16L1114.05,7603.2L1114.16,7603.25L1114.26,7603.29L1114.37,7603.34L1114.48,7603.38L1114.58,7603.43L1114.69,7603.47L1114.8,7603.52L1114.9,7603.57L1115.01,7603.61L1115.12,7603.66L1115.22,7603.71L1115.33,7603.75L1115.43,7603.8L1115.54,7603.85L1115.64,7603.9L1115.75,7603.95L1115.85,7604L1115.96,7604.05L1116.06,7604.1L1116.17,7604.15L1116.27,7604.2L1116.37,7604.25L1116.48,7604.3L1116.58,7604.35L1116.68,7604.4L1116.79,7604.45L1116.89,7604.51L1116.99,7604.56L1117.1,7604.61L1117.2,7604.66L1117.3,7604.72L1117.4,7604.77L1117.51,7604.82L1117.61,7604.88L1117.71,7604.93L1117.81,7604.99L1117.91,7605.04L1118.01,7605.1L1118.11,7605.15L1118.21,7605.21L1118.32,7605.27L1118.41,7605.32L1118.52,7605.38L1118.62,7605.44L1118.71,7605.5L1118.81,7605.55L1118.91,7605.61L1119.01,7605.67L1119.11,7605.73L1119.21,7605.79L1119.31,7605.85L1119.41,7605.91L1119.51,7605.97L1119.6,7606.03L1119.7,7606.09L1119.8,7606.15L1119.9,7606.21L1119.99,7606.27L1120.09,7606.33L1120.19,7606.39L1120.28,7606.46L1120.38,7606.52L1120.48,7606.58L1120.57,7606.64L1120.67,7606.71L1120.76,7606.77L1120.86,7606.84L1120.95,7606.9L1121.05,7606.96L1121.14,7607.03L1121.24,7607.09L1121.33,7607.16L1121.43,7607.22L1121.52,7607.29L1121.62,7607.36L1121.71,7607.42L1121.8,7607.49L1121.89,7607.56L1121.99,7607.62L1122.08,7607.69L1122.17,7607.76L1122.27,7607.83L1122.36,7607.89L1122.45,7607.96L1122.54,7608.03L1122.63,7608.1L1122.72,7608.17L1122.82,7608.24L1122.9,7608.31L1123,7608.38L1123.09,7608.45L1123.18,7608.52L1123.27,7608.59L1123.36,7608.66L1123.45,7608.73L1123.54,7608.81L1123.62,7608.88L1123.71,7608.95L1123.8,7609.02L1123.89,7609.1L1123.98,7609.17L1124.07,7609.24L1124.15,7609.32L1124.24,7609.39L1124.33,7609.46L1124.42,7609.54L1124.5,7609.61L1124.59,7609.69L1124.67,7609.76L1124.76,7609.84L1124.85,7609.91L1124.93,7609.99L1125.02,7610.06L1125.1,7610.14L1125.19,7610.22L1125.27,7610.29L1125.36,7610.37L1125.44,7610.45L1125.53,7610.53L1125.61,7610.6L1125.69,7610.68L1125.78,7610.76L1125.86,7610.84L1125.94,7610.92L1126.03,7611L1126.11,7611.08L1126.19,7611.15L1126.27,7611.24L1126.35,7611.32L1126.44,7611.4L1126.52,7611.48L1126.6,7611.56L1126.68,7611.64L1126.76,7611.72L1126.84,7611.8L1126.92,7611.88L1127,7611.96L1127.08,7612.05L1127.16,7612.13L1127.24,7612.21L1127.32,7612.29L1127.39,7612.38L1127.47,7612.46L1127.55,7612.54L1127.63,7612.63L1127.71,7612.71L1127.78,7612.8L1127.86,7612.88L1127.94,7612.97L1128.01,7613.05L1128.09,7613.14L1128.17,7613.22L1128.24,7613.31L1128.32,7613.39L1128.39,7613.48L1128.47,7613.57L1128.54,7613.65L1128.62,7613.74L1128.69,7613.83L1128.77,7613.91L1128.84,7614L1128.91,7614.09L1128.99,7614.18L1129.06,7614.27L1129.13,7614.35L1129.2,7614.44L1129.28,7614.53L1129.35,7614.62L1129.42,7614.71L1129.49,7614.8L1129.56,7614.89L1129.63,7614.98L1129.7,7615.07L1129.78,7615.16L1129.85,7615.25L1129.91,7615.34L1129.99,7615.43L1130.05,7615.52L1130.12,7615.61L1130.19,7615.71L1130.26,7615.8L1130.33,7615.89L1130.4,7615.98L1130.46,7616.07L1130.53,7616.17L1130.6,7616.26L1130.67,7616.35L1130.73,7616.45L1130.8,7616.54L1130.87,7616.63L1130.93,7616.73L1131,7616.82L1131.06,7616.92L1131.13,7617.01L1131.19,7617.11L1131.26,7617.2L1131.32,7617.3L1131.38,7617.39L1131.45,7617.49L1131.51,7617.58L1131.57,7617.68L1131.64,7617.78L1131.7,7617.87L1131.76,7617.97L1131.82,7618.07L1131.88,7618.16L1131.95,7618.26L1132.01,7618.36L1132.07,7618.45L1132.13,7618.55L1132.19,7618.65L1132.25,7618.75L1132.31,7618.85L1132.37,7618.94L1132.43,7619.04L1132.49,7619.14L1132.54,7619.24L1132.6,7619.34L1132.66,7619.44L1132.72,7619.54L1132.77,7619.64L1132.83,7619.74L1132.89,7619.84L1132.94,7619.94L1133,7620.04L1133.06,7620.14L1133.11,7620.24L1133.17,7620.34L1133.22,7620.45L1133.28,7620.55L1133.33,7620.65L1133.38,7620.75L1133.44,7620.85L1133.49,7620.96L1133.55,7621.06L1133.6,7621.16L1133.65,7621.26L1133.7,7621.37L1133.75,7621.47L1133.81,7621.57L1133.86,7621.68L1133.91,7621.78L1133.96,7621.88L1134.01,7621.99L1134.06,7622.09L1134.11,7622.2L1134.16,7622.3L1134.21,7622.41L1134.26,7622.51L1134.31,7622.62L1134.35,7622.72L1134.4,7622.83L1134.45,7622.93L1134.5,7623.04L1134.54,7623.15L1134.59,7623.25L1134.64,7623.36L1134.68,7623.46L1134.73,7623.57L1134.77,7623.68L1134.82,7623.78L1134.86,7623.89L1134.91,7624L1134.95,7624.11L1135,7624.21L1135.04,7624.32L1135.08,7624.43L1135.12,7624.54L1135.17,7624.65L1135.21,7624.75L1135.25,7624.86L1135.29,7624.97L1135.33,7625.08L1135.38,7625.19L1135.42,7625.3L1135.46,7625.41L1135.5,7625.52L1135.54,7625.63L1135.58,7625.74L1135.61,7625.85L1135.65,7625.96L1135.69,7626.07L1135.73,7626.18L1135.77,7626.29L1135.8,7626.4L1135.84,7626.51L1135.88,7626.62L1135.91,7626.73L1135.95,7626.85L1135.99,7626.96L1136.02,7627.07L1136.06,7627.18L1136.09,7627.29L1136.12,7627.4L1136.16,7627.52L1136.19,7627.63L1136.23,7627.74L1136.26,7627.85L1136.29,7627.97L1136.32,7628.08L1136.36,7628.19L1136.39,7628.31L1136.42,7628.42L1136.45,7628.53L1136.48,7628.65L1136.51,7628.76L1136.54,7628.87L1136.57,7628.99L1136.6,7629.1L1136.63,7629.22L1136.66,7629.33L1136.68,7629.45L1136.71,7629.56L1136.74,7629.68L1136.77,7629.79L1136.79,7629.91L1136.82,7630.02L1136.85,7630.14L1136.87,7630.25L1136.9,7630.37L1136.92,7630.48L1136.95,7630.6L1136.97,7630.72L1137,7630.83L1137.02,7630.95L1137.04,7631.07L1137.07,7631.18L1137.09,7631.3L1137.11,7631.42L1137.13,7631.53L1137.15,7631.65L1137.17,7631.77L1137.2,7631.88L1137.22,7632L1137.24,7632.12L1137.26,7632.24L1137.28,7632.36L1137.3,7632.47L1137.31,7632.59L1137.33,7632.71L1137.35,7632.83L1137.37,7632.95L1137.38,7633.07L1137.4,7633.18L1137.42,7633.3L1137.43,7633.42L1137.45,7633.54L1137.46,7633.66L1137.48,7633.78L1137.49,7633.9L1137.51,7634.02L1137.52,7634.14L1137.54,7634.26L1137.55,7634.38L1137.56,7634.5L1137.57,7634.62L1137.59,7634.74L1137.6,7634.86L1137.61,7634.98L1137.62,7635.1L1137.63,7635.22L1137.64,7635.34L1137.65,7635.46L1137.66,7635.58L1137.67,7635.7L1137.68,7635.82L1137.69,7635.94L1137.69,7636.07L1137.7,7636.19L1137.71,7636.31L1137.71,7636.43L1137.72,7636.55L1137.73,7636.67L1137.73,7636.8L1137.74,7636.92L1137.74,7637.04L1137.75,7637.16L1137.75,7637.28L1137.76,7637.41L1137.76,7637.53L1137.76,7637.65L1137.76,7637.78L1137.77,7637.9L1137.77,7638.02L1137.77,7638.14L1137.77,7638.27L1137.77,7638.39L1137.77,7638.51L1137.77,7638.64L1137.77,7638.76L1137.77,7638.88L1137.77,7639.01L1137.77,7639.13L1137.76,7639.25L1137.76,7639.37L1137.76,7639.5L1137.76,7639.62L1137.75,7639.74L1137.75,7639.86L1137.74,7639.99L1137.74,7640.11L1137.73,7640.23L1137.73,7640.35L1137.72,7640.47L1137.71,7640.6L1137.71,7640.72L1137.7,7640.84L1137.69,7640.96L1137.69,7641.08L1137.68,7641.2L1137.67,7641.32L1137.66,7641.44L1137.65,7641.57L1137.64,7641.69L1137.63,7641.81L1137.62,7641.93L1137.61,7642.05L1137.6,7642.17L1137.59,7642.29L1137.57,7642.41L1137.56,7642.53L1137.55,7642.65L1137.54,7642.77L1137.52,7642.89L1137.51,7643.01L1137.49,7643.13L1137.48,7643.25L1137.46,7643.37L1137.45,7643.49L1137.43,7643.61L1137.42,7643.72L1137.4,7643.84L1137.38,7643.96L1137.37,7644.08L1137.35,7644.2L1137.33,7644.32L1137.31,7644.44L1137.3,7644.55L1137.28,7644.67L1137.26,7644.79L1137.24,7644.91L1137.22,7645.02L1137.2,7645.14L1137.17,7645.26L1137.15,7645.38L1137.13,7645.49L1137.11,7645.61L1137.09,7645.73L1137.07,7645.84L1137.04,7645.96L1137.02,7646.08L1137,7646.19L1136.97,7646.31L1136.95,7646.43L1136.92,7646.54L1136.9,7646.66L1136.87,7646.77L1136.85,7646.89L1136.82,7647L1136.79,7647.12L1136.77,7647.24L1136.74,7647.35L1136.71,7647.47L1136.68,7647.58L1136.66,7647.69L1136.63,7647.81L1136.6,7647.92L1136.57,7648.04L1136.54,7648.15L1136.51,7648.27L1136.48,7648.38L1136.45,7648.49L1136.42,7648.61L1136.39,7648.72L1136.36,7648.83L1136.32,7648.95L1136.29,7649.06L1136.26,7649.17L1136.23,7649.28L1136.19,7649.4L1136.16,7649.51L1136.12,7649.62L1136.09,7649.73L1136.06,7649.85L1136.02,7649.96L1135.99,7650.07L1135.95,7650.18L1135.91,7650.29L1135.88,7650.4L1135.84,7650.52L1135.8,7650.63L1135.77,7650.74L1135.73,7650.85L1135.69,7650.96L1135.65,7651.07L1135.61,7651.18L1135.58,7651.29L1135.54,7651.4L1135.5,7651.51L1135.46,7651.62L1135.42,7651.73L1135.38,7651.84L1135.33,7651.94L1135.29,7652.05L1135.25,7652.16L1135.21,7652.27L1135.17,7652.38L1135.12,7652.49L1135.08,7652.6L1135.04,7652.7L1135,7652.81L1134.95,7652.92L1134.91,7653.03L1134.86,7653.14L1134.82,7653.24L1134.77,7653.35L1134.73,7653.46L1134.68,7653.56L1134.64,7653.67L1134.59,7653.78L1134.54,7653.88L1134.5,7653.99L1134.45,7654.09L1134.4,7654.2L1134.35,7654.3L1134.31,7654.41L1134.26,7654.52L1134.21,7654.62L1134.16,7654.72L1134.11,7654.83L1134.06,7654.93L1134.01,7655.04L1133.96,7655.14L1133.91,7655.25L1133.86,7655.35L1133.81,7655.45L1133.75,7655.56L1133.7,7655.66L1133.65,7655.76L1133.6,7655.86L1133.55,7655.97L1133.49,7656.07L1133.44,7656.17L1133.38,7656.28L1133.33,7656.38L1133.28,7656.48L1133.22,7656.58L1133.17,7656.68L1133.11,7656.78L1133.06,7656.88L1133,7656.99L1132.94,7657.09L1132.89,7657.19L1132.83,7657.29L1132.77,7657.39L1132.72,7657.49L1132.66,7657.59L1132.6,7657.69L1132.54,7657.78L1132.49,7657.88L1132.43,7657.98L1132.37,7658.08L1132.31,7658.18L1132.25,7658.28L1132.19,7658.38L1132.13,7658.47L1132.07,7658.57L1132.01,7658.67L1131.95,7658.77L1131.88,7658.86L1131.82,7658.96L1131.76,7659.06L1131.7,7659.15L1131.64,7659.25L1131.57,7659.35L1131.51,7659.44L1131.45,7659.54L1131.38,7659.64L1131.32,7659.73L1131.26,7659.82L1131.19,7659.92L1131.13,7660.02L1131.06,7660.11L1131,7660.2L1130.93,7660.3L1130.87,7660.39L1130.8,7660.49L1130.73,7660.58L1130.67,7660.67L1130.6,7660.77L1130.53,7660.86L1130.46,7660.95L1130.4,7661.04L1130.33,7661.14L1130.26,7661.23L1130.19,7661.32L1130.12,7661.41L1130.05,7661.5L1129.99,7661.6L1129.91,7661.69L1129.85,7661.78L1129.78,7661.87L1129.7,7661.96L1129.63,7662.05L1129.56,7662.14L1129.49,7662.23L1129.42,7662.32L1129.35,7662.41L1129.28,7662.49L1129.2,7662.58L1129.13,7662.67L1129.06,7662.76L1128.99,7662.85L1128.91,7662.94L1128.84,7663.03L1128.77,7663.11L1128.69,7663.2L1128.62,7663.29L1128.54,7663.37L1128.47,7663.46L1128.39,7663.55L1128.32,7663.63L1128.24,7663.72L1128.17,7663.8L1128.09,7663.89L1128.01,7663.98L1127.94,7664.06L1127.86,7664.15L1127.78,7664.23L1127.71,7664.31L1127.63,7664.4L1127.55,7664.48L1127.47,7664.57L1127.39,7664.65L1127.32,7664.73L1127.24,7664.82L1127.16,7664.9L1127.08,7664.98L1127,7665.06L1126.92,7665.14L1126.84,7665.23L1126.76,7665.31L1126.68,7665.39L1126.6,7665.47L1126.52,7665.55L1126.44,7665.63L1126.35,7665.71L1126.27,7665.79L1126.19,7665.87L1126.11,7665.95L1126.03,7666.03L1125.94,7666.11L1125.86,7666.19L1125.78,7666.27L1125.69,7666.34L1125.61,7666.42L1125.53,7666.5L1125.44,7666.58L1125.36,7666.65L1125.27,7666.73L1125.19,7666.81L1125.1,7666.89L1125.02,7666.96L1124.93,7667.04L1124.85,7667.11L1124.76,7667.19L1124.67,7667.27L1124.59,7667.34L1124.5,7667.41L1124.42,7667.49L1124.33,7667.56L1124.24,7667.64L1124.15,7667.71L1124.07,7667.78L1123.98,7667.86L1123.89,7667.93L1123.8,7668L1123.71,7668.08L1123.62,7668.15L1123.54,7668.22L1123.45,7668.29L1123.36,7668.36L1123.27,7668.44L1123.18,7668.51L1123.09,7668.58L1123,7668.65L1122.9,7668.72L1122.82,7668.79L1122.72,7668.86L1122.63,7668.93L1122.54,7668.99L1122.45,7669.06L1122.36,7669.13L1122.27,7669.2L1122.17,7669.27L1122.08,7669.34L1121.99,7669.4L1121.89,7669.47L1121.8,7669.54L1121.71,7669.6L1121.62,7669.67L1121.52,7669.74L1121.43,7669.8L1121.33,7669.87L1121.24,7669.93L1121.14,7670L1121.05,7670.06L1120.95,7670.13L1120.86,7670.19L1120.76,7670.26L1120.67,7670.32L1120.57,7670.38L1120.48,7670.44L1120.38,7670.51L1120.28,7670.57L1120.19,7670.63L1120.09,7670.69L1119.99,7670.76L1119.9,7670.82L1119.8,7670.88L1119.7,7670.94L1119.6,7671L1119.51,7671.06L1119.41,7671.12L1119.31,7671.18L1119.21,7671.24L1119.11,7671.3L1119.01,7671.36L1118.91,7671.41L1118.81,7671.47L1118.71,7671.53L1118.62,7671.59L1118.52,7671.65L1118.41,7671.7L1118.32,7671.76L1118.21,7671.82L1118.11,7671.87L1118.01,7671.93L1117.91,7671.98L1117.81,7672.04L1117.71,7672.09L1117.61,7672.15L1117.51,7672.2L1117.4,7672.26L1117.3,7672.31L1117.2,7672.36L1117.1,7672.42L1116.99,7672.47L1116.89,7672.52L1116.79,7672.57L1116.68,7672.62L1116.58,7672.68L1116.48,7672.73L1116.37,7672.78L1116.27,7672.83L1116.17,7672.88L1116.06,7672.93L1115.96,7672.98L1115.85,7673.03L1115.75,7673.08L1115.64,7673.13L1115.54,7673.18L1115.43,7673.22L1115.33,7673.27L1115.22,7673.32L1115.12,7673.37L1115.01,7673.41L1114.9,7673.46L1114.8,7673.51L1114.69,7673.55L1114.58,7673.6L1114.48,7673.64L1114.37,7673.69L1114.26,7673.73L1114.16,7673.78L1114.05,7673.82L1113.94,7673.87L1113.83,7673.91L1113.73,7673.95L1113.62,7674L1113.51,7674.04L1113.4,7674.08L1113.29,7674.12L1113.18,7674.16L1113.07,7674.21L1112.96,7674.25L1112.86,7674.29L1112.75,7674.33L1112.64,7674.37L1112.53,7674.41L1112.42,7674.45L1112.31,7674.49L1112.2,7674.52L1112.09,7674.56L1111.98,7674.6L1111.87,7674.64L1111.76,7674.68L1111.64,7674.71L1111.53,7674.75L1111.42,7674.78L1111.31,7674.82L1111.2,7674.86L1111.09,7674.89L1110.98,7674.93L1110.86,7674.96L1110.75,7675L1110.64,7675.03L1110.53,7675.06L1110.41,7675.1L1110.3,7675.13L1110.19,7675.16L1110.08,7675.19L1109.96,7675.23L1109.85,7675.26L1109.74,7675.29L1109.62,7675.32L1109.51,7675.35L1109.39,7675.38L1109.28,7675.41L1109.17,7675.44L1109.05,7675.47L1108.94,7675.5L1108.82,7675.53L1108.71,7675.56L1108.59,7675.58L1108.48,7675.61L1108.36,7675.64L1108.25,7675.67L1108.13,7675.69L1108.02,7675.72L1107.9,7675.74L1107.79,7675.77L1107.67,7675.79L1107.56,7675.82L1107.44,7675.84L1107.32,7675.87L1107.21,7675.89L1107.09,7675.91L1106.97,7675.94L1106.86,7675.96L1106.74,7675.98L1106.62,7676L1106.51,7676.03L1106.39,7676.05L1106.27,7676.07L1106.15,7676.09L1106.04,7676.11L1105.92,7676.13L1105.8,7676.15L1105.68,7676.17L1105.56,7676.19L1105.44,7676.2L1105.33,7676.22L1105.21,7676.24L1105.09,7676.26L1104.97,7676.27L1104.85,7676.29L1104.73,7676.31L1104.61,7676.32L1104.5,7676.34L1104.38,7676.35L1104.26,7676.37L1104.14,7676.38L1104.02,7676.39L1103.9,7676.41L1103.78,7676.42L1103.66,7676.43L1103.54,7676.45L1103.42,7676.46L1103.3,7676.47L1103.18,7676.48L1103.06,7676.49L1102.94,7676.5L1102.82,7676.51L1102.69,7676.52L1102.57,7676.53L1102.45,7676.54L1102.33,7676.55L1102.21,7676.56L1102.09,7676.57L1101.97,7676.57L1101.85,7676.58L1101.72,7676.59L1101.6,7676.59L1101.48,7676.6L1101.36,7676.61L1101.24,7676.61L1101.12,7676.61L1100.99,7676.62L1100.87,7676.62L1100.75,7676.63L1100.62,7676.63L1100.5,7676.63L1100.38,7676.64L1100.26,7676.64L1100.13,7676.64L1100.01,7676.64L1099.89,7676.64L1099.77,7676.64L1099.64,7676.64L1099.52,7676.64L1099.39,7676.64L1099.27,7676.64L1099.15,7676.64L1099.03,7676.64L1098.9,7676.64L1098.78,7676.63L1098.66,7676.63L1098.54,7676.63L1098.41,7676.62L1098.29,7676.62L1098.17,7676.61L1098.05,7676.61L1097.92,7676.61L1097.8,7676.6L1097.68,7676.59L1097.56,7676.59L1097.44,7676.58L1097.32,7676.57L1097.19,7676.57L1097.07,7676.56L1096.95,7676.55L1096.83,7676.54L1096.71,7676.53L1096.59,7676.52L1096.47,7676.51L1096.35,7676.5L1096.23,7676.49L1096.11,7676.48L1095.99,7676.47L1095.87,7676.46L1095.75,7676.45L1095.62,7676.43L1095.51,7676.42L1095.39,7676.41L1095.27,7676.39L1095.15,7676.38L1095.03,7676.37L1094.91,7676.35L1094.79,7676.34L1094.67,7676.32L1094.55,7676.31L1094.43,7676.29L1094.31,7676.27L1094.19,7676.26L1094.08,7676.24L1093.96,7676.22L1093.84,7676.2L1093.72,7676.19L1093.6,7676.17L1093.48,7676.15L1093.37,7676.13L1093.25,7676.11L1093.13,7676.09L1093.01,7676.07L1092.9,7676.05L1092.78,7676.03L1092.66,7676L1092.54,7675.98L1092.43,7675.96L1092.31,7675.94L1092.19,7675.91L1092.08,7675.89L1091.96,7675.87L1091.85,7675.84L1091.73,7675.82L1091.61,7675.79L1091.5,7675.77L1091.38,7675.74L1091.27,7675.72L1091.15,7675.69L1091.04,7675.67L1090.92,7675.64L1090.81,7675.61L1090.69,7675.58L1090.58,7675.56L1090.46,7675.53L1090.35,7675.5L1090.23,7675.47L1090.12,7675.44L1090,7675.41L1089.89,7675.38L1089.78,7675.35L1089.66,7675.32L1089.55,7675.29L1089.43,7675.26L1089.32,7675.23L1089.21,7675.19L1089.1,7675.16L1088.98,7675.13L1088.87,7675.1L1088.76,7675.06L1088.64,7675.03L1088.53,7675L1088.42,7674.96L1088.31,7674.93L1088.2,7674.89L1088.09,7674.86L1087.97,7674.82L1087.86,7674.78L1087.75,7674.75L1087.64,7674.71L1087.53,7674.68L1087.42,7674.64L1087.31,7674.6L1087.2,7674.56L1087.09,7674.52L1086.98,7674.49L1086.87,7674.45L1086.76,7674.41L1086.65,7674.37L1086.54,7674.33L1086.43,7674.29L1086.32,7674.25L1086.21,7674.21L1086.1,7674.16L1085.99,7674.12L1085.88,7674.08L1085.78,7674.04L1085.67,7674L1085.56,7673.95L1085.45,7673.91L1085.34,7673.87L1085.24,7673.82L1085.13,7673.78L1085.02,7673.73L1084.91,7673.69L1084.81,7673.64L1084.7,7673.6L1084.59,7673.55L1084.49,7673.51L1084.38,7673.46L1084.27,7673.41L1084.17,7673.37L1084.06,7673.32L1083.96,7673.27L1083.85,7673.22L1083.75,7673.18L1083.64,7673.13L1083.54,7673.08L1083.43,7673.03L1083.33,7672.98L1083.22,7672.93L1083.12,7672.88L1083.01,7672.83L1082.91,7672.78L1082.81,7672.73L1082.7,7672.68L1082.6,7672.62L1082.5,7672.57L1082.39,7672.52L1082.29,7672.47L1082.19,7672.42L1082.08,7672.36L1081.98,7672.31L1081.88,7672.26L1081.78,7672.2L1081.68,7672.15L1081.58,7672.09L1081.47,7672.04L1081.37,7671.98L1081.27,7671.93L1081.17,7671.87L1081.07,7671.82L1080.97,7671.76L1080.87,7671.7L1080.77,7671.65L1080.67,7671.59L1080.57,7671.53L1080.47,7671.47L1080.37,7671.41L1080.27,7671.36L1080.17,7671.3L1080.07,7671.24L1079.97,7671.18L1079.88,7671.12L1079.78,7671.06L1079.68,7671L1079.58,7670.94L1079.49,7670.88L1079.39,7670.82L1079.29,7670.76L1079.19,7670.69L1079.1,7670.63L1079,7670.57L1078.9,7670.51L1078.81,7670.44L1078.71,7670.38L1078.62,7670.32L1078.52,7670.26L1078.42,7670.19L1078.33,7670.13L1078.23,7670.06L1078.14,7670L1078.05,7669.93L1077.95,7669.87L1077.86,7669.8L1077.76,7669.74L1077.67,7669.67L1077.58,7669.6L1077.48,7669.54L1077.39,7669.47L1077.3,7669.4L1077.2,7669.34L1077.11,7669.27L1077.02,7669.2L1076.93,7669.13L1076.83,7669.06L1076.74,7668.99L1076.65,7668.93L1076.56,7668.86L1076.47,7668.79L1076.38,7668.72L1076.29,7668.65L1076.2,7668.58L1076.11,7668.51L1076.02,7668.44L1075.93,7668.36L1075.84,7668.29L1075.75,7668.22L1075.66,7668.15L1075.57,7668.08L1075.48,7668L1075.39,7667.93L1075.31,7667.86L1075.22,7667.78L1075.13,7667.71L1075.04,7667.64L1074.95,7667.56L1074.87,7667.49L1074.78,7667.41L1074.69,7667.34L1074.61,7667.27L1074.52,7667.19L1074.44,7667.11L1074.35,7667.04L1074.27,7666.96L1074.18,7666.89L1074.1,7666.81L1074.01,7666.73L1073.92,7666.65L1073.84,7666.58L1073.76,7666.5L1073.67,7666.42L1073.59,7666.34L1073.51,7666.27L1073.42,7666.19L1073.34,7666.11L1073.26,7666.03L1073.17,7665.95L1073.09,7665.87L1073.01,7665.79L1072.93,7665.71L1072.85,7665.63L1072.77,7665.55L1072.68,7665.47L1072.61,7665.39L1072.52,7665.31L1072.44,7665.23L1072.36,7665.14L1072.28,7665.06L1072.2,7664.98L1072.12,7664.9L1072.05,7664.82L1071.97,7664.73L1071.89,7664.65L1071.81,7664.57L1071.73,7664.48L1071.65,7664.4L1071.58,7664.31L1071.5,7664.23L1071.42,7664.15L1071.35,7664.06L1071.27,7663.98L1071.19,7663.89L1071.12,7663.8L1071.04,7663.72L1070.96,7663.63L1070.89,7663.55L1070.82,7663.46L1070.74,7663.37L1070.67,7663.29L1070.59,7663.2L1070.52,7663.11L1070.44,7663.03L1070.37,7662.94L1070.3,7662.85L1070.22,7662.76L1070.15,7662.67L1070.08,7662.58L1070.01,7662.49L1069.93,7662.41L1069.86,7662.32L1069.79,7662.23L1069.72,7662.14L1069.65,7662.05L1069.58,7661.96L1069.51,7661.87L1069.44,7661.78L1069.37,7661.69L1069.3,7661.6L1069.23,7661.5L1069.16,7661.41L1069.09,7661.32L1069.02,7661.23L1068.95,7661.14L1068.89,7661.04L1068.82,7660.95L1068.75,7660.86L1068.68,7660.77L1068.62,7660.67L1068.55,7660.58L1068.48,7660.49L1068.42,7660.39L1068.35,7660.3L1068.29,7660.2L1068.22,7660.11L1068.16,7660.02L1068.09,7659.92L1068.03,7659.82L1067.96,7659.73L1067.9,7659.64L1067.84,7659.54L1067.77,7659.44L1067.71,7659.35L1067.65,7659.25L1067.59,7659.15L1067.52,7659.06L1067.46,7658.96L1067.4,7658.86L1067.34,7658.77L1067.28,7658.67L1067.22,7658.57L1067.16,7658.47L1067.1,7658.38L1067.04,7658.28L1066.98,7658.18L1066.92,7658.08L1066.86,7657.98L1066.8,7657.88L1066.74,7657.78L1066.68,7657.69L1066.62,7657.59L1066.57,7657.49L1066.51,7657.39L1066.45,7657.29L1066.4,7657.19L1066.34,7657.09L1066.28,7656.99L1066.23,7656.88L1066.17,7656.78L1066.12,7656.68L1066.06,7656.58L1066.01,7656.48L1065.95,7656.38L1065.9,7656.28L1065.85,7656.17L1065.79,7656.07L1065.74,7655.97L1065.69,7655.86L1065.63,7655.76L1065.58,7655.66L1065.53,7655.56L1065.48,7655.45L1065.43,7655.35L1065.38,7655.25L1065.33,7655.14L1065.28,7655.04L1065.22,7654.93L1065.17,7654.83L1065.12,7654.72L1065.08,7654.62L1065.03,7654.52L1064.98,7654.41L1064.93,7654.3L1064.88,7654.2L1064.84,7654.09L1064.79,7653.99L1064.74,7653.88L1064.69,7653.78L1064.65,7653.67L1064.6,7653.56L1064.56,7653.46L1064.51,7653.35L1064.46,7653.24L1064.42,7653.14L1064.38,7653.03L1064.33,7652.92L1064.29,7652.81L1064.25,7652.7L1064.2,7652.6L1064.16,7652.49L1064.12,7652.38L1064.07,7652.27L1064.03,7652.16L1063.99,7652.05L1063.95,7651.94L1063.91,7651.84L1063.87,7651.73L1063.83,7651.62L1063.79,7651.51L1063.75,7651.4L1063.71,7651.29L1063.67,7651.18L1063.63,7651.07L1063.59,7650.96L1063.56,7650.85L1063.52,7650.74L1063.48,7650.63L1063.44,7650.52L1063.41,7650.4L1063.37,7650.29L1063.33,7650.18L1063.3,7650.07L1063.26,7649.96L1063.23,7649.85L1063.19,7649.73L1063.16,7649.62L1063.12,7649.51L1063.09,7649.4L1063.06,7649.28L1063.03,7649.17L1062.99,7649.06L1062.96,7648.95L1062.93,7648.83L1062.9,7648.72L1062.87,7648.61L1062.83,7648.49L1062.8,7648.38L1062.77,7648.27L1062.74,7648.15L1062.71,7648.04L1062.68,7647.92L1062.65,7647.81L1062.63,7647.69L1062.6,7647.58L1062.57,7647.47L1062.54,7647.35L1062.52,7647.24L1062.49,7647.12L1062.46,7647L1062.44,7646.89L1062.41,7646.77L1062.38,7646.66L1062.36,7646.54L1062.34,7646.43L1062.31,7646.31L1062.29,7646.19L1062.26,7646.08L1062.24,7645.96L1062.22,7645.84L1062.19,7645.73L1062.17,7645.61L1062.15,7645.49L1062.13,7645.38L1062.11,7645.26L1062.09,7645.14L1062.07,7645.02L1062.05,7644.91L1062.03,7644.79L1062.01,7644.67L1061.99,7644.55L1061.97,7644.44L1061.95,7644.32L1061.93,7644.2L1061.92,7644.08L1061.9,7643.96L1061.88,7643.84L1061.87,7643.72L1061.85,7643.61L1061.83,7643.49L1061.82,7643.37L1061.8,7643.25L1061.79,7643.13L1061.78,7643.01L1061.76,7642.89L1061.75,7642.77L1061.73,7642.65L1061.72,7642.53L1061.71,7642.41L1061.7,7642.29L1061.68,7642.17L1061.67,7642.05L1061.66,7641.93L1061.65,7641.81L1061.64,7641.69L1061.63,7641.57L1061.62,7641.44L1061.61,7641.32L1061.61,7641.2L1061.6,7641.08L1061.59,7640.96L1061.58,7640.84L1061.58,7640.72L1061.57,7640.6L1061.56,7640.47L1061.56,7640.35L1061.55,7640.23L1061.55,7640.11L1061.54,7639.99L1061.54,7639.86L1061.53,7639.74L1061.53,7639.62L1061.53,7639.5L1061.52,7639.37L1061.52,7639.25L1061.52,7639.13L1061.52,7639.01L1061.51,7638.88L1061.51,7638.76L1061.51,7638.64L1061.51,7638.51L1061.51,7638.39L1061.51,7638.27L1061.51,7638.14L1061.52,7638.02L1061.52,7637.9L1061.52,7637.78L1061.52,7637.65L1061.53,7637.53L1061.53,7637.41L1061.53,7637.28L1061.54,7637.16L1061.54,7637.04L1061.55,7636.92L1061.55,7636.8L1061.56,7636.67L1061.56,7636.55L1061.57,7636.43L1061.58,7636.31L1061.58,7636.19L1061.59,7636.07L1061.6,7635.94L1061.61,7635.82L1061.61,7635.7L1061.62,7635.58L1061.63,7635.46L1061.64,7635.34L1061.65,7635.22L1061.66,7635.1L1061.67,7634.98L1061.68,7634.86L1061.7,7634.74L1061.71,7634.62L1061.72,7634.5L1061.73,7634.38L1061.75,7634.26L1061.76,7634.14L1061.78,7634.02L1061.79,7633.9L1061.8,7633.78L1061.82,7633.66L1061.83,7633.54L1061.85,7633.42L1061.87,7633.3L1061.88,7633.18L1061.9,7633.07L1061.92,7632.95L1061.93,7632.83L1061.95,7632.71L1061.97,7632.59L1061.99,7632.47L1062.01,7632.36L1062.03,7632.24L1062.05,7632.12L1062.07,7632L1062.09,7631.88L1062.11,7631.77L1062.13,7631.65L1062.15,7631.53L1062.17,7631.42L1062.19,7631.3L1062.22,7631.18L1062.24,7631.07L1062.26,7630.95L1062.29,7630.83L1062.31,7630.72L1062.34,7630.6L1062.36,7630.48L1062.38,7630.37L1062.41,7630.25L1062.44,7630.14L1062.46,7630.02L1062.49,7629.91L1062.52,7629.79L1062.54,7629.68L1062.57,7629.56L1062.6,7629.45L1062.63,7629.33L1062.65,7629.22L1062.68,7629.1L1062.71,7628.99L1062.74,7628.87L1062.77,7628.76L1062.8,7628.65L1062.83,7628.53L1062.87,7628.42L1062.9,7628.31L1062.93,7628.19L1062.96,7628.08L1062.99,7627.97L1063.03,7627.85L1063.06,7627.74L1063.09,7627.63L1063.12,7627.52L1063.16,7627.4L1063.19,7627.29L1063.23,7627.18L1063.26,7627.07L1063.3,7626.96L1063.33,7626.85L1063.37,7626.73L1063.41,7626.62L1063.44,7626.51L1063.48,7626.4L1063.52,7626.29L1063.56,7626.18L1063.59,7626.07L1063.63,7625.96L1063.67,7625.85L1063.71,7625.74L1063.75,7625.63L1063.79,7625.52L1063.83,7625.41L1063.87,7625.3L1063.91,7625.19L1063.95,7625.08L1063.99,7624.97L1064.03,7624.86L1064.07,7624.75L1064.12,7624.65L1064.16,7624.54L1064.2,7624.43L1064.25,7624.32L1064.29,7624.21L1064.33,7624.11L1064.38,7624L1064.42,7623.89L1064.46,7623.78L1064.51,7623.68L1064.56,7623.57L1064.6,7623.46L1064.65,7623.36L1064.69,7623.25L1064.74,7623.15L1064.79,7623.04L1064.84,7622.93L1064.88,7622.83L1064.93,7622.72L1064.98,7622.62L1065.03,7622.51L1065.08,7622.41L1065.12,7622.3L1065.17,7622.2L1065.22,7622.09L1065.28,7621.99L1065.33,7621.88L1065.38,7621.78L1065.43,7621.68L1065.48,7621.57L1065.53,7621.47L1065.58,7621.37L1065.63,7621.26L1065.69,7621.16L1065.74,7621.06L1065.79,7620.96L1065.85,7620.85L1065.9,7620.75L1065.95,7620.65L1066.01,7620.55L1066.06,7620.45L1066.12,7620.34L1066.17,7620.24L1066.23,7620.14L1066.28,7620.04L1066.34,7619.94L1066.4,7619.84L1066.45,7619.74L1066.51,7619.64L1066.57,7619.54L1066.62,7619.44L1066.68,7619.34L1066.74,7619.24L1066.8,7619.14L1066.86,7619.04L1066.92,7618.94L1066.98,7618.85L1067.04,7618.75L1067.1,7618.65L1067.16,7618.55L1067.22,7618.45L1067.28,7618.36L1067.34,7618.26L1067.4,7618.16L1067.46,7618.07L1067.52,7617.97L1067.59,7617.87L1067.65,7617.78L1067.71,7617.68L1067.77,7617.58L1067.84,7617.49L1067.9,7617.39L1067.96,7617.3L1068.03,7617.2L1068.09,7617.11L1068.16,7617.01L1068.22,7616.92L1068.29,7616.82L1068.35,7616.73L1068.42,7616.63L1068.48,7616.54L1068.55,7616.45L1068.62,7616.35L1068.68,7616.26L1068.75,7616.17L1068.82,7616.07L1068.89,7615.98L1068.95,7615.89L1069.02,7615.8L1069.09,7615.71L1069.16,7615.61L1069.23,7615.52L1069.3,7615.43L1069.37,7615.34L1069.44,7615.25L1069.51,7615.16L1069.58,7615.07L1069.65,7614.98L1069.72,7614.89L1069.79,7614.8L1069.86,7614.71L1069.93,7614.62L1070.01,7614.53L1070.08,7614.44L1070.15,7614.35L1070.22,7614.27L1070.3,7614.18L1070.37,7614.09L1070.44,7614L1070.52,7613.91L1070.59,7613.83L1070.67,7613.74L1070.74,7613.65L1070.82,7613.57L1070.89,7613.48L1070.96,7613.39L1071.04,7613.31L1071.12,7613.22L1071.19,7613.14L1071.27,7613.05L1071.35,7612.97L1071.42,7612.88L1071.5,7612.8L1071.58,7612.71L1071.65,7612.63L1071.73,7612.54L1071.81,7612.46L1071.89,7612.38L1071.97,7612.29L1072.05,7612.21L1072.12,7612.13L1072.2,7612.05L1072.28,7611.96L1072.36,7611.88L1072.44,7611.8L1072.52,7611.72L1072.61,7611.64L1072.68,7611.56L1072.77,7611.48L1072.85,7611.4L1072.93,7611.32L1073.01,7611.24L1073.09,7611.15L1073.17,7611.08L1073.26,7611L1073.34,7610.92L1073.42,7610.84L1073.51,7610.76L1073.59,7610.68L1073.67,7610.6L1073.76,7610.53L1073.84,7610.45L1073.92,7610.37L1074.01,7610.29L1074.1,7610.22L1074.18,7610.14L1074.27,7610.06L1074.35,7609.99L1074.44,7609.91L1074.52,7609.84L1074.61,7609.76L1074.69,7609.69L1074.78,7609.61L1074.87,7609.54L1074.95,7609.46L1075.04,7609.39L1075.13,7609.32L1075.22,7609.24L1075.31,7609.17L1075.39,7609.1L1075.48,7609.02L1075.57,7608.95L1075.66,7608.88L1075.75,7608.81L1075.84,7608.73L1075.93,7608.66L1076.02,7608.59L1076.11,7608.52L1076.2,7608.45L1076.29,7608.38L1076.38,7608.31L1076.47,7608.24L1076.56,7608.17L1076.65,7608.1L1076.74,7608.03L1076.83,7607.96L1076.93,7607.89L1077.02,7607.83L1077.11,7607.76L1077.2,7607.69L1077.3,7607.62L1077.39,7607.56L1077.48,7607.49L1077.58,7607.42L1077.67,7607.36L1077.76,7607.29L1077.86,7607.22L1077.95,7607.16L1078.05,7607.09L1078.14,7607.03L1078.23,7606.96L1078.33,7606.9L1078.42,7606.84L1078.52,7606.77L1078.62,7606.71L1078.71,7606.64L1078.81,7606.58L1078.9,7606.52L1079,7606.46L1079.1,7606.39L1079.19,7606.33L1079.29,7606.27L1079.39,7606.21L1079.49,7606.15L1079.58,7606.09L1079.68,7606.03L1079.78,7605.97L1079.88,7605.91L1079.97,7605.85L1080.07,7605.79L1080.17,7605.73L1080.27,7605.67L1080.37,7605.61L1080.47,7605.55L1080.57,7605.5L1080.67,7605.44L1080.77,7605.38L1080.87,7605.32L1080.97,7605.27L1081.07,7605.21L1081.17,7605.15L1081.27,7605.1L1081.37,7605.04L1081.47,7604.99L1081.58,7604.93L1081.68,7604.88L1081.78,7604.82L1081.88,7604.77L1081.98,7604.72L1082.08,7604.66L1082.19,7604.61L1082.29,7604.56L1082.39,7604.51L1082.5,7604.45L1082.6,7604.4L1082.7,7604.35L1082.81,7604.3L1082.91,7604.25L1083.01,7604.2L1083.12,7604.15L1083.22,7604.1L1083.33,7604.05L1083.43,7604L1083.54,7603.95L1083.64,7603.9L1083.75,7603.85L1083.85,7603.8L1083.96,7603.75L1084.06,7603.71L1084.17,7603.66L1084.27,7603.61L1084.38,7603.57L1084.49,7603.52L1084.59,7603.47L1084.7,7603.43L1084.81,7603.38L1084.91,7603.34L1085.02,7603.29L1085.13,7603.25L1085.24,7603.2L1085.34,7603.16L1085.45,7603.12L1085.56,7603.07L1085.67,7603.03L1085.78,7602.99L1085.88,7602.94L1085.99,7602.9L1086.1,7602.86L1086.21,7602.82L1086.32,7602.78L1086.43,7602.74L1086.54,7602.7L1086.65,7602.66L1086.76,7602.62L1086.87,7602.58L1086.98,7602.54L1087.09,7602.5L1087.2,7602.46L1087.31,7602.43L1087.42,7602.39L1087.53,7602.35L1087.64,7602.31L1087.75,7602.28L1087.86,7602.24L1087.97,7602.2L1088.09,7602.17L1088.2,7602.13L1088.31,7602.1L1088.42,7602.06L1088.53,7602.03L1088.64,7602L1088.76,7601.96L1088.87,7601.93L1088.98,7601.9L1089.1,7601.86L1089.21,7601.83L1089.32,7601.8L1089.43,7601.77L1089.55,7601.74L1089.66,7601.7L1089.78,7601.67L1089.89,7601.64L1090,7601.61L1090.12,7601.59L1090.23,7601.56L1090.35,7601.53L1090.46,7601.5L1090.58,7601.47L1090.69,7601.44L1090.81,7601.41L1090.92,7601.39L1091.04,7601.36L1091.15,7601.33L1091.27,7601.31L1091.38,7601.28L1091.5,7601.26L1091.61,7601.23L1091.73,7601.21L1091.85,7601.18L1091.96,7601.16L1092.08,7601.14L1092.19,7601.11L1092.31,7601.09L1092.43,7601.07L1092.54,7601.04L1092.66,7601.02L1092.78,7601L1092.9,7600.98L1093.01,7600.96L1093.13,7600.94L1093.25,7600.92L1093.37,7600.9L1093.48,7600.88L1093.6,7600.86L1093.72,7600.84L1093.84,7600.82L1093.96,7600.81L1094.08,7600.79L1094.19,7600.77L1094.31,7600.75L1094.43,7600.74L1094.55,7600.72L1094.67,7600.7L1094.79,7600.69L1094.91,7600.68L1095.03,7600.66L1095.15,7600.65L1095.27,7600.63L1095.39,7600.62L1095.51,7600.61L1095.62,7600.59L1095.75,7600.58L1095.87,7600.57L1095.99,7600.56L1096.11,7600.55L1096.23,7600.53L1096.35,7600.52L1096.47,7600.51L1096.59,7600.5L1096.71,7600.49L1096.83,7600.49L1096.95,7600.48L1097.07,7600.47L1097.19,7600.46L1097.32,7600.45L1097.44,7600.45L1097.56,7600.44L1097.68,7600.43L1097.8,7600.43L1097.92,7600.42L1098.05,7600.42L1098.17,7600.41L1098.29,7600.41L1098.41,7600.4L1098.54,7600.4L1098.66,7600.4L1098.78,7600.39L1098.9,7600.39L1099.03,7600.39L1099.15,7600.39L1099.27,7600.39L1099.39,7600.38L1099.52,7600.38L1099.64,7600.38L1099.77,7600.38ZM1099.53,7602.38L1099.41,7602.38L1099.29,7602.39L1099.17,7602.39L1099.06,7602.39L1098.94,7602.39L1098.83,7602.39L1098.71,7602.4L1098.59,7602.4L1098.48,7602.4L1098.36,7602.41L1098.25,7602.41L1098.13,7602.41L1098.01,7602.42L1097.9,7602.43L1097.78,7602.43L1097.67,7602.44L1097.55,7602.44L1097.44,7602.45L1097.32,7602.46L1097.21,7602.46L1097.09,7602.47L1096.98,7602.48L1096.86,7602.49L1096.75,7602.5L1096.63,7602.51L1096.52,7602.52L1096.4,7602.53L1096.29,7602.54L1096.18,7602.55L1096.06,7602.56L1095.95,7602.57L1095.83,7602.58L1095.72,7602.59L1095.61,7602.61L1095.49,7602.62L1095.38,7602.63L1095.27,7602.65L1095.15,7602.66L1095.04,7602.67L1094.93,7602.69L1094.82,7602.7L1094.7,7602.72L1094.59,7602.73L1094.48,7602.75L1094.37,7602.77L1094.25,7602.78L1094.14,7602.8L1094.03,7602.82L1093.92,7602.84L1093.81,7602.85L1093.69,7602.87L1093.58,7602.89L1093.47,7602.91L1093.36,7602.93L1093.25,7602.95L1093.14,7602.97L1093.03,7602.99L1092.91,7603.01L1092.8,7603.03L1092.69,7603.05L1092.58,7603.07L1092.47,7603.1L1092.36,7603.12L1092.25,7603.14L1092.14,7603.16L1092.03,7603.19L1091.92,7603.21L1091.81,7603.24L1091.7,7603.26L1091.6,7603.28L1091.49,7603.31L1091.38,7603.34L1091.27,7603.36L1091.16,7603.39L1091.05,7603.41L1090.94,7603.44L1090.83,7603.47L1090.72,7603.49L1090.62,7603.52L1090.51,7603.55L1090.4,7603.58L1090.29,7603.61L1090.18,7603.64L1090.08,7603.66L1089.97,7603.69L1089.86,7603.72L1089.76,7603.76L1089.65,7603.78L1089.54,7603.82L1089.43,7603.85L1089.33,7603.88L1089.22,7603.91L1089.12,7603.94L1089.01,7603.98L1088.9,7604.01L1088.8,7604.04L1088.69,7604.07L1088.59,7604.11L1088.48,7604.14L1088.38,7604.18L1088.27,7604.21L1088.16,7604.25L1088.06,7604.28L1087.95,7604.32L1087.85,7604.35L1087.75,7604.39L1087.64,7604.43L1087.54,7604.46L1087.43,7604.5L1087.33,7604.54L1087.22,7604.58L1087.12,7604.61L1087.02,7604.65L1086.91,7604.69L1086.81,7604.73L1086.71,7604.77L1086.61,7604.81L1086.5,7604.85L1086.4,7604.89L1086.3,7604.93L1086.2,7604.97L1086.09,7605.01L1085.99,7605.06L1085.89,7605.1L1085.79,7605.14L1085.69,7605.18L1085.59,7605.22L1085.48,7605.27L1085.38,7605.31L1085.28,7605.35L1085.18,7605.4L1085.08,7605.44L1084.98,7605.49L1084.88,7605.53L1084.78,7605.58L1084.68,7605.62L1084.58,7605.67L1084.48,7605.71L1084.38,7605.76L1084.28,7605.81L1084.18,7605.85L1084.09,7605.9L1083.99,7605.95L1083.89,7605.99L1083.79,7606.04L1083.69,7606.09L1083.59,7606.14L1083.49,7606.19L1083.4,7606.24L1083.3,7606.29L1083.2,7606.34L1083.1,7606.39L1083.01,7606.44L1082.91,7606.49L1082.81,7606.54L1082.72,7606.59L1082.62,7606.64L1082.52,7606.69L1082.43,7606.75L1082.33,7606.8L1082.24,7606.85L1082.14,7606.9L1082.05,7606.96L1081.95,7607.01L1081.86,7607.06L1081.76,7607.12L1081.67,7607.17L1081.57,7607.23L1081.48,7607.28L1081.38,7607.34L1081.29,7607.39L1081.19,7607.45L1081.1,7607.5L1081.01,7607.56L1080.91,7607.62L1080.82,7607.67L1080.73,7607.73L1080.64,7607.79L1080.54,7607.84L1080.45,7607.9L1080.36,7607.96L1080.27,7608.02L1080.18,7608.08L1080.09,7608.14L1079.99,7608.19L1079.9,7608.26L1079.81,7608.32L1079.72,7608.38L1079.63,7608.44L1079.54,7608.49L1079.45,7608.56L1079.36,7608.62L1079.27,7608.68L1079.18,7608.74L1079.09,7608.8L1079,7608.86L1078.91,7608.93L1078.82,7608.99L1078.73,7609.05L1078.65,7609.11L1078.56,7609.18L1078.47,7609.24L1078.38,7609.31L1078.29,7609.37L1078.21,7609.43L1078.12,7609.5L1078.03,7609.56L1077.94,7609.63L1077.86,7609.69L1077.77,7609.76L1077.69,7609.83L1077.6,7609.89L1077.51,7609.96L1077.43,7610.03L1077.34,7610.09L1077.26,7610.16L1077.17,7610.23L1077.09,7610.3L1077,7610.36L1076.92,7610.43L1076.84,7610.5L1076.75,7610.57L1076.67,7610.64L1076.58,7610.71L1076.5,7610.78L1076.42,7610.85L1076.33,7610.92L1076.25,7610.99L1076.17,7611.06L1076.09,7611.13L1076,7611.2L1075.92,7611.27L1075.84,7611.34L1075.76,7611.41L1075.68,7611.48L1075.6,7611.56L1075.52,7611.63L1075.43,7611.7L1075.36,7611.77L1075.28,7611.85L1075.19,7611.92L1075.12,7611.99L1075.04,7612.07L1074.96,7612.14L1074.88,7612.22L1074.8,7612.29L1074.72,7612.36L1074.64,7612.44L1074.56,7612.52L1074.49,7612.59L1074.41,7612.67L1074.33,7612.74L1074.25,7612.82L1074.18,7612.89L1074.1,7612.97L1074.02,7613.05L1073.95,7613.12L1073.87,7613.2L1073.8,7613.28L1073.72,7613.36L1073.64,7613.44L1073.57,7613.51L1073.49,7613.59L1073.42,7613.67L1073.34,7613.75L1073.27,7613.83L1073.2,7613.91L1073.12,7613.99L1073.05,7614.07L1072.97,7614.15L1072.9,7614.23L1072.83,7614.31L1072.76,7614.39L1072.68,7614.47L1072.61,7614.55L1072.54,7614.63L1072.47,7614.71L1072.4,7614.79L1072.33,7614.88L1072.26,7614.96L1072.18,7615.04L1072.12,7615.12L1072.04,7615.2L1071.97,7615.29L1071.9,7615.37L1071.84,7615.45L1071.77,7615.54L1071.7,7615.62L1071.63,7615.71L1071.56,7615.79L1071.49,7615.87L1071.42,7615.96L1071.36,7616.04L1071.29,7616.13L1071.22,7616.21L1071.15,7616.3L1071.09,7616.39L1071.02,7616.47L1070.95,7616.56L1070.89,7616.64L1070.82,7616.73L1070.76,7616.82L1070.69,7616.9L1070.63,7616.99L1070.56,7617.08L1070.5,7617.16L1070.43,7617.25L1070.37,7617.34L1070.31,7617.43L1070.24,7617.52L1070.18,7617.61L1070.12,7617.69L1070.06,7617.78L1069.99,7617.87L1069.93,7617.96L1069.87,7618.05L1069.81,7618.14L1069.75,7618.23L1069.68,7618.32L1069.62,7618.41L1069.56,7618.5L1069.5,7618.59L1069.44,7618.68L1069.38,7618.77L1069.32,7618.86L1069.27,7618.96L1069.21,7619.05L1069.15,7619.14L1069.09,7619.23L1069.03,7619.32L1068.97,7619.42L1068.92,7619.51L1068.86,7619.6L1068.8,7619.69L1068.75,7619.79L1068.69,7619.88L1068.63,7619.97L1068.58,7620.07L1068.52,7620.16L1068.46,7620.25L1068.41,7620.35L1068.36,7620.44L1068.3,7620.54L1068.25,7620.63L1068.19,7620.73L1068.14,7620.82L1068.09,7620.92L1068.03,7621.01L1067.98,7621.11L1067.93,7621.2L1067.87,7621.3L1067.82,7621.4L1067.77,7621.49L1067.72,7621.59L1067.67,7621.69L1067.62,7621.78L1067.57,7621.88L1067.52,7621.98L1067.47,7622.07L1067.42,7622.17L1067.37,7622.27L1067.32,7622.37L1067.27,7622.46L1067.22,7622.56L1067.17,7622.66L1067.12,7622.76L1067.08,7622.86L1067.03,7622.96L1066.98,7623.06L1066.93,7623.15L1066.89,7623.25L1066.84,7623.35L1066.8,7623.45L1066.75,7623.55L1066.7,7623.65L1066.66,7623.75L1066.62,7623.85L1066.57,7623.95L1066.53,7624.05L1066.48,7624.15L1066.44,7624.26L1066.39,7624.36L1066.35,7624.46L1066.31,7624.56L1066.27,7624.66L1066.22,7624.76L1066.18,7624.86L1066.14,7624.97L1066.1,7625.07L1066.06,7625.17L1066.02,7625.27L1065.98,7625.37L1065.94,7625.48L1065.9,7625.58L1065.86,7625.68L1065.82,7625.79L1065.78,7625.89L1065.74,7625.99L1065.7,7626.1L1065.67,7626.2L1065.63,7626.3L1065.59,7626.41L1065.56,7626.51L1065.52,7626.62L1065.48,7626.72L1065.45,7626.83L1065.41,7626.93L1065.38,7627.04L1065.34,7627.14L1065.31,7627.25L1065.27,7627.35L1065.24,7627.46L1065.2,7627.56L1065.17,7627.67L1065.14,7627.77L1065.1,7627.88L1065.07,7627.99L1065.04,7628.09L1065.01,7628.2L1064.98,7628.31L1064.94,7628.41L1064.91,7628.52L1064.88,7628.63L1064.85,7628.73L1064.82,7628.84L1064.79,7628.95L1064.76,7629.06L1064.74,7629.16L1064.71,7629.27L1064.68,7629.38L1064.65,7629.49L1064.62,7629.6L1064.6,7629.7L1064.57,7629.81L1064.54,7629.92L1064.52,7630.03L1064.49,7630.14L1064.46,7630.25L1064.44,7630.36L1064.41,7630.47L1064.39,7630.57L1064.36,7630.69L1064.34,7630.79L1064.32,7630.9L1064.29,7631.01L1064.27,7631.12L1064.25,7631.23L1064.22,7631.34L1064.2,7631.45L1064.18,7631.57L1064.16,7631.68L1064.14,7631.79L1064.12,7631.9L1064.1,7632.01L1064.08,7632.12L1064.06,7632.23L1064.04,7632.34L1064.02,7632.45L1064,7632.57L1063.98,7632.68L1063.96,7632.79L1063.95,7632.9L1063.93,7633.01L1063.91,7633.12L1063.89,7633.24L1063.88,7633.35L1063.86,7633.46L1063.85,7633.57L1063.83,7633.69L1063.82,7633.8L1063.8,7633.91L1063.79,7634.03L1063.78,7634.14L1063.76,7634.25L1063.75,7634.36L1063.74,7634.48L1063.72,7634.59L1063.71,7634.7L1063.7,7634.82L1063.69,7634.93L1063.68,7635.05L1063.67,7635.16L1063.65,7635.28L1063.64,7635.39L1063.64,7635.5L1063.63,7635.62L1063.62,7635.73L1063.61,7635.85L1063.6,7635.96L1063.59,7636.08L1063.59,7636.19L1063.58,7636.31L1063.57,7636.42L1063.57,7636.54L1063.56,7636.65L1063.55,7636.77L1063.55,7636.89L1063.54,7637L1063.54,7637.12L1063.53,7637.23L1063.53,7637.35L1063.53,7637.46L1063.52,7637.58L1063.52,7637.7L1063.52,7637.81L1063.52,7637.93L1063.52,7638.05L1063.51,7638.16L1063.51,7638.28L1063.51,7638.4L1063.51,7638.51L1063.51,7638.63L1063.51,7638.75L1063.51,7638.86L1063.52,7638.98L1063.52,7639.1L1063.52,7639.21L1063.52,7639.33L1063.52,7639.45L1063.53,7639.56L1063.53,7639.68L1063.53,7639.79L1063.54,7639.91L1063.54,7640.03L1063.55,7640.14L1063.55,7640.26L1063.56,7640.37L1063.57,7640.49L1063.57,7640.6L1063.58,7640.72L1063.59,7640.83L1063.59,7640.95L1063.6,7641.06L1063.61,7641.18L1063.62,7641.29L1063.63,7641.41L1063.64,7641.52L1063.64,7641.64L1063.65,7641.75L1063.67,7641.86L1063.68,7641.98L1063.69,7642.09L1063.7,7642.21L1063.71,7642.32L1063.72,7642.43L1063.74,7642.55L1063.75,7642.66L1063.76,7642.78L1063.78,7642.89L1063.79,7643L1063.8,7643.11L1063.82,7643.23L1063.83,7643.34L1063.85,7643.45L1063.86,7643.57L1063.88,7643.68L1063.89,7643.79L1063.91,7643.9L1063.93,7644.01L1063.95,7644.13L1063.96,7644.24L1063.98,7644.35L1064,7644.46L1064.02,7644.57L1064.04,7644.68L1064.06,7644.8L1064.08,7644.91L1064.1,7645.02L1064.12,7645.13L1064.14,7645.24L1064.16,7645.35L1064.18,7645.46L1064.2,7645.57L1064.22,7645.68L1064.25,7645.79L1064.27,7645.9L1064.29,7646.01L1064.32,7646.12L1064.34,7646.23L1064.36,7646.34L1064.39,7646.45L1064.41,7646.56L1064.44,7646.67L1064.46,7646.78L1064.49,7646.89L1064.52,7647L1064.54,7647.11L1064.57,7647.21L1064.6,7647.32L1064.62,7647.43L1064.65,7647.54L1064.68,7647.65L1064.71,7647.76L1064.74,7647.86L1064.76,7647.97L1064.79,7648.08L1064.82,7648.19L1064.85,7648.29L1064.88,7648.4L1064.91,7648.51L1064.94,7648.61L1064.98,7648.72L1065.01,7648.83L1065.04,7648.93L1065.07,7649.04L1065.1,7649.15L1065.14,7649.25L1065.17,7649.36L1065.2,7649.46L1065.24,7649.57L1065.27,7649.68L1065.31,7649.78L1065.34,7649.89L1065.38,7649.99L1065.41,7650.1L1065.45,7650.2L1065.48,7650.31L1065.52,7650.41L1065.56,7650.51L1065.59,7650.62L1065.63,7650.72L1065.67,7650.83L1065.7,7650.93L1065.74,7651.03L1065.78,7651.14L1065.82,7651.24L1065.86,7651.34L1065.9,7651.45L1065.94,7651.55L1065.98,7651.65L1066.02,7651.75L1066.06,7651.86L1066.1,7651.96L1066.14,7652.06L1066.18,7652.16L1066.22,7652.27L1066.27,7652.37L1066.31,7652.47L1066.35,7652.57L1066.39,7652.67L1066.44,7652.77L1066.48,7652.87L1066.53,7652.97L1066.57,7653.07L1066.62,7653.17L1066.66,7653.27L1066.7,7653.37L1066.75,7653.47L1066.8,7653.57L1066.84,7653.67L1066.89,7653.77L1066.93,7653.87L1066.98,7653.97L1067.03,7654.07L1067.08,7654.17L1067.12,7654.27L1067.17,7654.37L1067.22,7654.46L1067.27,7654.56L1067.32,7654.66L1067.37,7654.76L1067.42,7654.86L1067.47,7654.95L1067.52,7655.05L1067.57,7655.15L1067.62,7655.24L1067.67,7655.34L1067.72,7655.44L1067.77,7655.53L1067.82,7655.63L1067.87,7655.73L1067.93,7655.82L1067.98,7655.92L1068.03,7656.01L1068.09,7656.11L1068.14,7656.2L1068.19,7656.3L1068.25,7656.39L1068.3,7656.49L1068.36,7656.58L1068.41,7656.68L1068.46,7656.77L1068.52,7656.87L1068.58,7656.96L1068.63,7657.05L1068.69,7657.15L1068.75,7657.24L1068.8,7657.33L1068.86,7657.43L1068.92,7657.52L1068.97,7657.61L1069.03,7657.7L1069.09,7657.8L1069.15,7657.89L1069.21,7657.98L1069.27,7658.07L1069.32,7658.16L1069.38,7658.25L1069.44,7658.34L1069.5,7658.43L1069.56,7658.53L1069.62,7658.61L1069.68,7658.71L1069.75,7658.8L1069.81,7658.89L1069.87,7658.98L1069.93,7659.07L1069.99,7659.15L1070.06,7659.24L1070.12,7659.33L1070.18,7659.42L1070.24,7659.51L1070.31,7659.6L1070.37,7659.69L1070.43,7659.77L1070.5,7659.86L1070.56,7659.95L1070.63,7660.03L1070.69,7660.12L1070.76,7660.21L1070.82,7660.3L1070.89,7660.38L1070.95,7660.47L1071.02,7660.56L1071.09,7660.64L1071.15,7660.73L1071.22,7660.81L1071.29,7660.9L1071.36,7660.98L1071.42,7661.07L1071.49,7661.15L1071.56,7661.24L1071.63,7661.32L1071.7,7661.4L1071.77,7661.49L1071.84,7661.57L1071.9,7661.65L1071.97,7661.74L1072.04,7661.82L1072.12,7661.9L1072.18,7661.99L1072.26,7662.07L1072.33,7662.15L1072.4,7662.23L1072.47,7662.31L1072.54,7662.4L1072.61,7662.48L1072.68,7662.56L1072.76,7662.64L1072.83,7662.72L1072.9,7662.8L1072.97,7662.88L1073.05,7662.96L1073.12,7663.04L1073.2,7663.12L1073.27,7663.2L1073.34,7663.28L1073.42,7663.36L1073.49,7663.44L1073.57,7663.51L1073.64,7663.59L1073.72,7663.67L1073.8,7663.75L1073.87,7663.82L1073.95,7663.9L1074.02,7663.98L1074.1,7664.06L1074.18,7664.13L1074.25,7664.21L1074.33,7664.28L1074.41,7664.36L1074.49,7664.44L1074.56,7664.51L1074.64,7664.59L1074.72,7664.66L1074.8,7664.74L1074.88,7664.81L1074.96,7664.89L1075.04,7664.96L1075.12,7665.03L1075.19,7665.11L1075.28,7665.18L1075.36,7665.25L1075.43,7665.32L1075.52,7665.4L1075.6,7665.47L1075.68,7665.54L1075.76,7665.61L1075.84,7665.69L1075.92,7665.76L1076,7665.83L1076.09,7665.9L1076.17,7665.97L1076.25,7666.04L1076.33,7666.11L1076.42,7666.18L1076.5,7666.25L1076.58,7666.32L1076.67,7666.39L1076.75,7666.46L1076.84,7666.53L1076.92,7666.6L1077,7666.66L1077.09,7666.73L1077.17,7666.8L1077.26,7666.87L1077.34,7666.93L1077.43,7667L1077.51,7667.07L1077.6,7667.13L1077.69,7667.2L1077.77,7667.27L1077.86,7667.33L1077.94,7667.4L1078.03,7667.46L1078.12,7667.53L1078.21,7667.59L1078.29,7667.66L1078.38,7667.72L1078.47,7667.78L1078.56,7667.85L1078.65,7667.91L1078.73,7667.97L1078.82,7668.04L1078.91,7668.1L1079,7668.16L1079.09,7668.22L1079.18,7668.29L1079.27,7668.35L1079.36,7668.41L1079.45,7668.47L1079.54,7668.53L1079.63,7668.59L1079.72,7668.65L1079.81,7668.71L1079.9,7668.77L1079.99,7668.83L1080.09,7668.89L1080.18,7668.95L1080.27,7669.01L1080.36,7669.07L1080.45,7669.12L1080.54,7669.18L1080.64,7669.24L1080.73,7669.3L1080.82,7669.35L1080.91,7669.41L1081.01,7669.47L1081.1,7669.52L1081.19,7669.58L1081.29,7669.63L1081.38,7669.69L1081.48,7669.74L1081.57,7669.8L1081.67,7669.85L1081.76,7669.91L1081.86,7669.96L1081.95,7670.02L1082.05,7670.07L1082.14,7670.12L1082.24,7670.18L1082.33,7670.23L1082.43,7670.28L1082.52,7670.33L1082.62,7670.38L1082.72,7670.44L1082.81,7670.49L1082.91,7670.54L1083.01,7670.59L1083.1,7670.64L1083.2,7670.69L1083.3,7670.74L1083.4,7670.79L1083.49,7670.84L1083.59,7670.89L1083.69,7670.94L1083.79,7670.98L1083.89,7671.03L1083.99,7671.08L1084.09,7671.13L1084.18,7671.17L1084.28,7671.22L1084.38,7671.27L1084.48,7671.31L1084.58,7671.36L1084.68,7671.4L1084.78,7671.45L1084.88,7671.49L1084.98,7671.54L1085.08,7671.58L1085.18,7671.63L1085.28,7671.67L1085.38,7671.72L1085.48,7671.76L1085.59,7671.8L1085.69,7671.85L1085.79,7671.89L1085.89,7671.93L1085.99,7671.97L1086.09,7672.01L1086.2,7672.05L1086.3,7672.1L1086.4,7672.14L1086.5,7672.18L1086.61,7672.22L1086.71,7672.26L1086.81,7672.3L1086.91,7672.33L1087.02,7672.37L1087.12,7672.41L1087.22,7672.45L1087.33,7672.49L1087.43,7672.53L1087.54,7672.56L1087.64,7672.6L1087.75,7672.64L1087.85,7672.67L1087.95,7672.71L1088.06,7672.74L1088.16,7672.78L1088.27,7672.81L1088.38,7672.85L1088.48,7672.88L1088.59,7672.92L1088.69,7672.95L1088.8,7672.98L1088.9,7673.02L1089.01,7673.05L1089.12,7673.08L1089.22,7673.11L1089.33,7673.15L1089.43,7673.18L1089.54,7673.21L1089.65,7673.24L1089.76,7673.27L1089.86,7673.3L1089.97,7673.33L1090.08,7673.36L1090.18,7673.39L1090.29,7673.42L1090.4,7673.45L1090.51,7673.48L1090.62,7673.51L1090.72,7673.53L1090.83,7673.56L1090.94,7673.59L1091.05,7673.61L1091.16,7673.64L1091.27,7673.67L1091.38,7673.69L1091.49,7673.72L1091.6,7673.74L1091.7,7673.77L1091.81,7673.79L1091.92,7673.82L1092.03,7673.84L1092.14,7673.86L1092.25,7673.89L1092.36,7673.91L1092.47,7673.93L1092.58,7673.95L1092.69,7673.97L1092.8,7674L1092.91,7674.02L1093.03,7674.04L1093.14,7674.06L1093.25,7674.08L1093.36,7674.1L1093.47,7674.12L1093.58,7674.14L1093.69,7674.15L1093.81,7674.17L1093.92,7674.19L1094.03,7674.21L1094.14,7674.23L1094.25,7674.24L1094.37,7674.26L1094.48,7674.28L1094.59,7674.29L1094.7,7674.31L1094.82,7674.32L1094.93,7674.34L1095.04,7674.35L1095.15,7674.37L1095.27,7674.38L1095.38,7674.39L1095.49,7674.41L1095.61,7674.42L1095.72,7674.43L1095.83,7674.44L1095.95,7674.46L1096.06,7674.47L1096.18,7674.48L1096.29,7674.49L1096.4,7674.5L1096.52,7674.51L1096.63,7674.52L1096.75,7674.53L1096.86,7674.54L1096.98,7674.55L1097.09,7674.55L1097.21,7674.56L1097.32,7674.57L1097.44,7674.58L1097.55,7674.58L1097.67,7674.59L1097.78,7674.6L1097.9,7674.6L1098.01,7674.61L1098.13,7674.61L1098.25,7674.62L1098.36,7674.62L1098.48,7674.62L1098.59,7674.63L1098.71,7674.63L1098.83,7674.63L1098.94,7674.64L1099.06,7674.64L1099.17,7674.64L1099.29,7674.64L1099.41,7674.64L1099.53,7674.64L1099.64,7674.64L1099.76,7674.64L1099.88,7674.64L1099.99,7674.64L1100.11,7674.64L1100.23,7674.64L1100.34,7674.64L1100.46,7674.63L1100.58,7674.63L1100.69,7674.63L1100.81,7674.62L1100.92,7674.62L1101.04,7674.62L1101.15,7674.61L1101.27,7674.61L1101.39,7674.6L1101.5,7674.6L1101.62,7674.59L1101.73,7674.58L1101.85,7674.58L1101.96,7674.57L1102.08,7674.56L1102.19,7674.55L1102.31,7674.55L1102.42,7674.54L1102.54,7674.53L1102.65,7674.52L1102.77,7674.51L1102.88,7674.5L1102.99,7674.49L1103.11,7674.48L1103.22,7674.47L1103.34,7674.46L1103.45,7674.44L1103.56,7674.43L1103.68,7674.42L1103.79,7674.41L1103.9,7674.39L1104.02,7674.38L1104.13,7674.37L1104.24,7674.35L1104.36,7674.34L1104.47,7674.32L1104.58,7674.31L1104.69,7674.29L1104.81,7674.28L1104.92,7674.26L1105.03,7674.24L1105.14,7674.23L1105.26,7674.21L1105.37,7674.19L1105.48,7674.17L1105.59,7674.15L1105.7,7674.14L1105.81,7674.12L1105.92,7674.1L1106.04,7674.08L1106.15,7674.06L1106.26,7674.04L1106.37,7674.02L1106.48,7674L1106.59,7673.97L1106.7,7673.95L1106.81,7673.93L1106.92,7673.91L1107.03,7673.89L1107.14,7673.86L1107.25,7673.84L1107.36,7673.82L1107.47,7673.79L1107.58,7673.77L1107.69,7673.74L1107.8,7673.72L1107.91,7673.69L1108.02,7673.67L1108.12,7673.64L1108.23,7673.61L1108.34,7673.59L1108.45,7673.56L1108.56,7673.53L1108.67,7673.51L1108.78,7673.48L1108.88,7673.45L1108.99,7673.42L1109.1,7673.39L1109.21,7673.36L1109.31,7673.33L1109.42,7673.3L1109.53,7673.27L1109.63,7673.24L1109.74,7673.21L1109.85,7673.18L1109.96,7673.15L1110.06,7673.11L1110.17,7673.08L1110.28,7673.05L1110.38,7673.02L1110.49,7672.98L1110.59,7672.95L1110.7,7672.92L1110.8,7672.88L1110.91,7672.85L1111.01,7672.81L1111.12,7672.78L1111.22,7672.74L1111.33,7672.71L1111.43,7672.67L1111.54,7672.64L1111.64,7672.6L1111.75,7672.56L1111.85,7672.53L1111.95,7672.49L1112.06,7672.45L1112.16,7672.41L1112.27,7672.37L1112.37,7672.33L1112.47,7672.3L1112.58,7672.26L1112.68,7672.22L1112.78,7672.18L1112.88,7672.14L1112.99,7672.1L1113.09,7672.05L1113.19,7672.01L1113.29,7671.97L1113.39,7671.93L1113.5,7671.89L1113.6,7671.85L1113.7,7671.8L1113.8,7671.76L1113.9,7671.72L1114,7671.67L1114.1,7671.63L1114.2,7671.58L1114.3,7671.54L1114.4,7671.49L1114.5,7671.45L1114.6,7671.4L1114.7,7671.36L1114.8,7671.31L1114.9,7671.27L1115,7671.22L1115.1,7671.17L1115.2,7671.13L1115.3,7671.08L1115.4,7671.03L1115.5,7670.98L1115.59,7670.94L1115.69,7670.89L1115.79,7670.84L1115.89,7670.79L1115.99,7670.74L1116.08,7670.69L1116.18,7670.64L1116.28,7670.59L1116.37,7670.54L1116.47,7670.49L1116.57,7670.44L1116.66,7670.38L1116.76,7670.33L1116.86,7670.28L1116.95,7670.23L1117.05,7670.18L1117.14,7670.12L1117.24,7670.07L1117.33,7670.02L1117.43,7669.96L1117.52,7669.91L1117.62,7669.85L1117.71,7669.8L1117.81,7669.74L1117.9,7669.69L1117.99,7669.63L1118.09,7669.58L1118.18,7669.52L1118.28,7669.47L1118.37,7669.41L1118.46,7669.35L1118.55,7669.3L1118.65,7669.24L1118.74,7669.18L1118.83,7669.12L1118.92,7669.07L1119.02,7669.01L1119.11,7668.95L1119.2,7668.89L1119.29,7668.83L1119.38,7668.77L1119.47,7668.71L1119.56,7668.65L1119.65,7668.59L1119.74,7668.53L1119.83,7668.47L1119.92,7668.41L1120.01,7668.35L1120.1,7668.29L1120.19,7668.22L1120.28,7668.16L1120.37,7668.1L1120.46,7668.04L1120.55,7667.97L1120.64,7667.91L1120.73,7667.85L1120.81,7667.78L1120.9,7667.72L1120.99,7667.66L1121.08,7667.59L1121.16,7667.53L1121.25,7667.46L1121.34,7667.4L1121.42,7667.33L1121.51,7667.27L1121.6,7667.2L1121.68,7667.13L1121.77,7667.07L1121.86,7667L1121.94,7666.93L1122.03,7666.87L1122.11,7666.8L1122.2,7666.73L1122.28,7666.66L1122.37,7666.6L1122.45,7666.53L1122.53,7666.46L1122.62,7666.39L1122.7,7666.32L1122.78,7666.25L1122.87,7666.18L1122.95,7666.11L1123.03,7666.04L1123.12,7665.97L1123.2,7665.9L1123.28,7665.83L1123.36,7665.76L1123.44,7665.69L1123.52,7665.61L1123.61,7665.54L1123.69,7665.47L1123.77,7665.4L1123.85,7665.32L1123.93,7665.25L1124.01,7665.18L1124.09,7665.11L1124.17,7665.03L1124.25,7664.96L1124.33,7664.89L1124.41,7664.81L1124.49,7664.74L1124.56,7664.66L1124.64,7664.59L1124.72,7664.51L1124.8,7664.44L1124.88,7664.36L1124.95,7664.28L1125.03,7664.21L1125.11,7664.13L1125.18,7664.06L1125.26,7663.98L1125.34,7663.9L1125.41,7663.82L1125.49,7663.75L1125.56,7663.67L1125.64,7663.59L1125.71,7663.51L1125.79,7663.44L1125.87,7663.36L1125.94,7663.28L1126.01,7663.2L1126.09,7663.12L1126.16,7663.04L1126.24,7662.96L1126.31,7662.88L1126.38,7662.8L1126.45,7662.72L1126.53,7662.64L1126.6,7662.56L1126.67,7662.48L1126.74,7662.4L1126.81,7662.31L1126.89,7662.23L1126.96,7662.15L1127.03,7662.07L1127.1,7661.99L1127.17,7661.9L1127.24,7661.82L1127.31,7661.74L1127.38,7661.65L1127.45,7661.57L1127.52,7661.49L1127.59,7661.4L1127.65,7661.32L1127.72,7661.24L1127.79,7661.15L1127.86,7661.07L1127.93,7660.98L1128,7660.9L1128.06,7660.81L1128.13,7660.73L1128.2,7660.64L1128.26,7660.56L1128.33,7660.47L1128.39,7660.38L1128.46,7660.3L1128.53,7660.21L1128.59,7660.12L1128.66,7660.03L1128.72,7659.95L1128.79,7659.86L1128.85,7659.77L1128.91,7659.69L1128.98,7659.6L1129.04,7659.51L1129.1,7659.42L1129.17,7659.33L1129.23,7659.24L1129.29,7659.15L1129.35,7659.07L1129.41,7658.98L1129.48,7658.89L1129.54,7658.8L1129.6,7658.71L1129.66,7658.61L1129.72,7658.53L1129.78,7658.43L1129.84,7658.34L1129.9,7658.25L1129.96,7658.16L1130.02,7658.07L1130.08,7657.98L1130.14,7657.89L1130.19,7657.8L1130.25,7657.7L1130.31,7657.61L1130.37,7657.52L1130.42,7657.43L1130.48,7657.33L1130.54,7657.24L1130.6,7657.15L1130.65,7657.05L1130.71,7656.96L1130.76,7656.87L1130.82,7656.77L1130.87,7656.68L1130.93,7656.58L1130.98,7656.49L1131.04,7656.39L1131.09,7656.3L1131.14,7656.2L1131.2,7656.11L1131.25,7656.01L1131.3,7655.92L1131.36,7655.82L1131.41,7655.73L1131.46,7655.63L1131.51,7655.53L1131.56,7655.44L1131.62,7655.34L1131.67,7655.24L1131.72,7655.15L1131.77,7655.05L1131.82,7654.95L1131.87,7654.86L1131.92,7654.76L1131.97,7654.66L1132.02,7654.56L1132.06,7654.46L1132.11,7654.37L1132.16,7654.27L1132.21,7654.17L1132.26,7654.07L1132.3,7653.97L1132.35,7653.87L1132.39,7653.77L1132.44,7653.67L1132.49,7653.57L1132.53,7653.47L1132.58,7653.37L1132.62,7653.27L1132.67,7653.17L1132.71,7653.07L1132.76,7652.97L1132.8,7652.87L1132.85,7652.77L1132.89,7652.67L1132.93,7652.57L1132.97,7652.47L1133.02,7652.37L1133.06,7652.27L1133.1,7652.16L1133.14,7652.06L1133.18,7651.96L1133.22,7651.86L1133.26,7651.75L1133.31,7651.65L1133.35,7651.55L1133.38,7651.45L1133.42,7651.34L1133.46,7651.24L1133.5,7651.14L1133.54,7651.03L1133.58,7650.93L1133.62,7650.83L1133.65,7650.72L1133.69,7650.62L1133.73,7650.51L1133.76,7650.41L1133.8,7650.31L1133.84,7650.2L1133.87,7650.1L1133.91,7649.99L1133.94,7649.89L1133.98,7649.78L1134.01,7649.68L1134.05,7649.57L1134.08,7649.46L1134.11,7649.36L1134.15,7649.25L1134.18,7649.15L1134.21,7649.04L1134.24,7648.93L1134.28,7648.83L1134.31,7648.72L1134.34,7648.61L1134.37,7648.51L1134.4,7648.4L1134.43,7648.29L1134.46,7648.19L1134.49,7648.08L1134.52,7647.97L1134.55,7647.86L1134.58,7647.76L1134.61,7647.65L1134.63,7647.54L1134.66,7647.43L1134.69,7647.32L1134.71,7647.21L1134.74,7647.11L1134.77,7647L1134.79,7646.89L1134.82,7646.78L1134.85,7646.67L1134.87,7646.56L1134.89,7646.45L1134.92,7646.34L1134.94,7646.23L1134.97,7646.12L1134.99,7646.01L1135.01,7645.9L1135.04,7645.79L1135.06,7645.68L1135.08,7645.57L1135.1,7645.46L1135.12,7645.35L1135.14,7645.24L1135.17,7645.13L1135.19,7645.02L1135.21,7644.91L1135.23,7644.8L1135.25,7644.68L1135.27,7644.57L1135.28,7644.46L1135.3,7644.35L1135.32,7644.24L1135.34,7644.13L1135.36,7644.01L1135.37,7643.9L1135.39,7643.79L1135.4,7643.68L1135.42,7643.57L1135.44,7643.45L1135.45,7643.34L1135.47,7643.23L1135.48,7643.11L1135.5,7643L1135.51,7642.89L1135.52,7642.78L1135.54,7642.66L1135.55,7642.55L1135.56,7642.43L1135.57,7642.32L1135.59,7642.21L1135.6,7642.09L1135.61,7641.98L1135.62,7641.86L1135.63,7641.75L1135.64,7641.64L1135.65,7641.52L1135.66,7641.41L1135.67,7641.29L1135.67,7641.18L1135.68,7641.06L1135.69,7640.95L1135.7,7640.83L1135.7,7640.72L1135.71,7640.6L1135.72,7640.49L1135.72,7640.37L1135.73,7640.26L1135.74,7640.14L1135.74,7640.03L1135.75,7639.91L1135.75,7639.79L1135.75,7639.68L1135.76,7639.56L1135.76,7639.45L1135.76,7639.33L1135.77,7639.21L1135.77,7639.1L1135.77,7638.98L1135.77,7638.86L1135.77,7638.75L1135.77,7638.63L1135.77,7638.51L1135.77,7638.4L1135.77,7638.28L1135.77,7638.16L1135.77,7638.05L1135.77,7637.93L1135.77,7637.81L1135.76,7637.7L1135.76,7637.58L1135.76,7637.46L1135.75,7637.35L1135.75,7637.23L1135.75,7637.12L1135.74,7637L1135.74,7636.89L1135.73,7636.77L1135.72,7636.65L1135.72,7636.54L1135.71,7636.42L1135.7,7636.31L1135.7,7636.19L1135.69,7636.08L1135.68,7635.96L1135.67,7635.85L1135.67,7635.73L1135.66,7635.62L1135.65,7635.5L1135.64,7635.39L1135.63,7635.28L1135.62,7635.16L1135.61,7635.05L1135.6,7634.93L1135.59,7634.82L1135.57,7634.7L1135.56,7634.59L1135.55,7634.48L1135.54,7634.36L1135.52,7634.25L1135.51,7634.14L1135.5,7634.03L1135.48,7633.91L1135.47,7633.8L1135.45,7633.69L1135.44,7633.57L1135.42,7633.46L1135.4,7633.35L1135.39,7633.24L1135.37,7633.12L1135.36,7633.01L1135.34,7632.9L1135.32,7632.79L1135.3,7632.68L1135.28,7632.57L1135.27,7632.45L1135.25,7632.34L1135.23,7632.23L1135.21,7632.12L1135.19,7632.01L1135.17,7631.9L1135.14,7631.79L1135.12,7631.68L1135.1,7631.57L1135.08,7631.45L1135.06,7631.34L1135.04,7631.23L1135.01,7631.12L1134.99,7631.01L1134.97,7630.9L1134.94,7630.79L1134.92,7630.69L1134.89,7630.57L1134.87,7630.47L1134.85,7630.36L1134.82,7630.25L1134.79,7630.14L1134.77,7630.03L1134.74,7629.92L1134.71,7629.81L1134.69,7629.7L1134.66,7629.6L1134.63,7629.49L1134.61,7629.38L1134.58,7629.27L1134.55,7629.16L1134.52,7629.06L1134.49,7628.95L1134.46,7628.84L1134.43,7628.73L1134.4,7628.63L1134.37,7628.52L1134.34,7628.41L1134.31,7628.31L1134.28,7628.2L1134.24,7628.09L1134.21,7627.99L1134.18,7627.88L1134.15,7627.77L1134.11,7627.67L1134.08,7627.56L1134.05,7627.46L1134.01,7627.35L1133.98,7627.25L1133.94,7627.14L1133.91,7627.04L1133.87,7626.93L1133.84,7626.83L1133.8,7626.72L1133.76,7626.62L1133.73,7626.51L1133.69,7626.41L1133.65,7626.3L1133.62,7626.2L1133.58,7626.1L1133.54,7625.99L1133.5,7625.89L1133.46,7625.79L1133.42,7625.68L1133.38,7625.58L1133.35,7625.48L1133.31,7625.37L1133.26,7625.27L1133.22,7625.17L1133.18,7625.07L1133.14,7624.97L1133.1,7624.86L1133.06,7624.76L1133.02,7624.66L1132.97,7624.56L1132.93,7624.46L1132.89,7624.36L1132.85,7624.26L1132.8,7624.15L1132.76,7624.05L1132.71,7623.95L1132.67,7623.85L1132.62,7623.75L1132.58,7623.65L1132.53,7623.55L1132.49,7623.45L1132.44,7623.35L1132.39,7623.25L1132.35,7623.15L1132.3,7623.06L1132.26,7622.96L1132.21,7622.86L1132.16,7622.76L1132.11,7622.66L1132.06,7622.56L1132.02,7622.46L1131.97,7622.37L1131.92,7622.27L1131.87,7622.17L1131.82,7622.07L1131.77,7621.98L1131.72,7621.88L1131.67,7621.78L1131.62,7621.69L1131.56,7621.59L1131.51,7621.49L1131.46,7621.4L1131.41,7621.3L1131.36,7621.2L1131.3,7621.11L1131.25,7621.01L1131.2,7620.92L1131.14,7620.82L1131.09,7620.73L1131.04,7620.63L1130.98,7620.54L1130.93,7620.44L1130.87,7620.35L1130.82,7620.25L1130.76,7620.16L1130.71,7620.07L1130.65,7619.97L1130.6,7619.88L1130.54,7619.79L1130.48,7619.69L1130.42,7619.6L1130.37,7619.51L1130.31,7619.42L1130.25,7619.32L1130.19,7619.23L1130.14,7619.14L1130.08,7619.05L1130.02,7618.96L1129.96,7618.86L1129.9,7618.77L1129.84,7618.68L1129.78,7618.59L1129.72,7618.5L1129.66,7618.41L1129.6,7618.32L1129.54,7618.23L1129.48,7618.14L1129.41,7618.05L1129.35,7617.96L1129.29,7617.87L1129.23,7617.78L1129.17,7617.69L1129.1,7617.61L1129.04,7617.52L1128.98,7617.43L1128.91,7617.34L1128.85,7617.25L1128.79,7617.16L1128.72,7617.08L1128.66,7616.99L1128.59,7616.9L1128.53,7616.82L1128.46,7616.73L1128.39,7616.64L1128.33,7616.56L1128.26,7616.47L1128.2,7616.39L1128.13,7616.3L1128.06,7616.21L1128,7616.13L1127.93,7616.04L1127.86,7615.96L1127.79,7615.87L1127.72,7615.79L1127.65,7615.71L1127.59,7615.62L1127.52,7615.54L1127.45,7615.45L1127.38,7615.37L1127.31,7615.29L1127.24,7615.2L1127.17,7615.12L1127.1,7615.04L1127.03,7614.96L1126.96,7614.88L1126.89,7614.79L1126.81,7614.71L1126.74,7614.63L1126.67,7614.55L1126.6,7614.47L1126.53,7614.39L1126.45,7614.31L1126.38,7614.23L1126.31,7614.15L1126.24,7614.07L1126.16,7613.99L1126.09,7613.91L1126.01,7613.83L1125.94,7613.75L1125.87,7613.67L1125.79,7613.59L1125.71,7613.51L1125.64,7613.44L1125.56,7613.36L1125.49,7613.28L1125.41,7613.2L1125.34,7613.12L1125.26,7613.05L1125.18,7612.97L1125.11,7612.89L1125.03,7612.82L1124.95,7612.74L1124.88,7612.67L1124.8,7612.59L1124.72,7612.52L1124.64,7612.44L1124.56,7612.36L1124.49,7612.29L1124.41,7612.22L1124.33,7612.14L1124.25,7612.07L1124.17,7611.99L1124.09,7611.92L1124.01,7611.85L1123.93,7611.77L1123.85,7611.7L1123.77,7611.63L1123.69,7611.56L1123.61,7611.48L1123.52,7611.41L1123.44,7611.34L1123.36,7611.27L1123.28,7611.2L1123.2,7611.13L1123.12,7611.06L1123.03,7610.99L1122.95,7610.92L1122.87,7610.85L1122.78,7610.78L1122.7,7610.71L1122.62,7610.64L1122.53,7610.57L1122.45,7610.5L1122.37,7610.43L1122.28,7610.36L1122.2,7610.3L1122.11,7610.23L1122.03,7610.16L1121.94,7610.09L1121.86,7610.03L1121.77,7609.96L1121.68,7609.89L1121.6,7609.83L1121.51,7609.76L1121.42,7609.69L1121.34,7609.63L1121.25,7609.56L1121.16,7609.5L1121.08,7609.43L1120.99,7609.37L1120.9,7609.31L1120.81,7609.24L1120.73,7609.18L1120.64,7609.11L1120.55,7609.05L1120.46,7608.99L1120.37,7608.93L1120.28,7608.86L1120.19,7608.8L1120.1,7608.74L1120.01,7608.68L1119.92,7608.62L1119.83,7608.56L1119.74,7608.49L1119.65,7608.44L1119.56,7608.38L1119.47,7608.32L1119.38,7608.26L1119.29,7608.19L1119.2,7608.14L1119.11,7608.08L1119.02,7608.02L1118.92,7607.96L1118.83,7607.9L1118.74,7607.84L1118.65,7607.79L1118.55,7607.73L1118.46,7607.67L1118.37,7607.62L1118.28,7607.56L1118.18,7607.5L1118.09,7607.45L1117.99,7607.39L1117.9,7607.34L1117.81,7607.28L1117.71,7607.23L1117.62,7607.17L1117.52,7607.12L1117.43,7607.06L1117.33,7607.01L1117.24,7606.96L1117.14,7606.9L1117.05,7606.85L1116.95,7606.8L1116.86,7606.74L1116.76,7606.69L1116.66,7606.64L1116.57,7606.59L1116.47,7606.54L1116.37,7606.49L1116.28,7606.44L1116.18,7606.39L1116.08,7606.34L1115.98,7606.29L1115.89,7606.24L1115.79,7606.19L1115.69,7606.14L1115.59,7606.09L1115.5,7606.04L1115.4,7605.99L1115.3,7605.95L1115.2,7605.9L1115.1,7605.85L1115,7605.81L1114.9,7605.76L1114.8,7605.71L1114.7,7605.67L1114.6,7605.62L1114.5,7605.58L1114.4,7605.53L1114.3,7605.49L1114.2,7605.44L1114.1,7605.4L1114,7605.35L1113.9,7605.31L1113.8,7605.27L1113.7,7605.22L1113.6,7605.18L1113.5,7605.14L1113.39,7605.1L1113.29,7605.06L1113.19,7605.01L1113.09,7604.97L1112.99,7604.93L1112.88,7604.89L1112.78,7604.85L1112.68,7604.81L1112.58,7604.77L1112.47,7604.73L1112.37,7604.69L1112.27,7604.65L1112.16,7604.61L1112.06,7604.58L1111.95,7604.54L1111.85,7604.5L1111.75,7604.46L1111.64,7604.43L1111.54,7604.39L1111.43,7604.35L1111.33,7604.32L1111.22,7604.28L1111.12,7604.25L1111.01,7604.21L1110.91,7604.18L1110.8,7604.14L1110.7,7604.11L1110.59,7604.07L1110.49,7604.04L1110.38,7604.01L1110.28,7603.98L1110.17,7603.94L1110.06,7603.91L1109.96,7603.88L1109.85,7603.85L1109.74,7603.82L1109.63,7603.78L1109.53,7603.76L1109.42,7603.72L1109.31,7603.69L1109.21,7603.66L1109.1,7603.64L1108.99,7603.61L1108.88,7603.58L1108.78,7603.55L1108.67,7603.52L1108.56,7603.49L1108.45,7603.47L1108.34,7603.44L1108.23,7603.41L1108.12,7603.39L1108.02,7603.36L1107.91,7603.34L1107.8,7603.31L1107.69,7603.28L1107.58,7603.26L1107.47,7603.24L1107.36,7603.21L1107.25,7603.19L1107.14,7603.16L1107.03,7603.14L1106.92,7603.12L1106.81,7603.1L1106.7,7603.07L1106.59,7603.05L1106.48,7603.03L1106.37,7603.01L1106.26,7602.99L1106.15,7602.97L1106.04,7602.95L1105.92,7602.93L1105.81,7602.91L1105.7,7602.89L1105.59,7602.87L1105.48,7602.85L1105.37,7602.84L1105.26,7602.82L1105.14,7602.8L1105.03,7602.78L1104.92,7602.77L1104.81,7602.75L1104.69,7602.73L1104.58,7602.72L1104.47,7602.7L1104.36,7602.69L1104.24,7602.67L1104.13,7602.66L1104.02,7602.65L1103.9,7602.63L1103.79,7602.62L1103.68,7602.61L1103.56,7602.59L1103.45,7602.58L1103.34,7602.57L1103.22,7602.56L1103.11,7602.55L1102.99,7602.54L1102.88,7602.53L1102.77,7602.52L1102.65,7602.51L1102.54,7602.5L1102.42,7602.49L1102.31,7602.48L1102.19,7602.47L1102.08,7602.46L1101.96,7602.46L1101.85,7602.45L1101.73,7602.44L1101.62,7602.44L1101.5,7602.43L1101.39,7602.43L1101.27,7602.42L1101.15,7602.41L1101.04,7602.41L1100.92,7602.41L1100.81,7602.4L1100.69,7602.4L1100.58,7602.4L1100.46,7602.39L1100.34,7602.39L1100.23,7602.39L1100.11,7602.39L1099.99,7602.39L1099.88,7602.38L1099.76,7602.38L1099.64,7602.38L1099.53,7602.38Z" style="fill:rgb(0,194,202);"/>
    </g>
</svg>
