<?xml version="1.0" encoding="UTF-8" standalone="no"?>
<!DOCTYPE svg PUBLIC "-//W3C//DTD SVG 1.1//EN" "http://www.w3.org/Graphics/SVG/1.1/DTD/svg11.dtd">
<svg width="100%" height="100%" viewBox="0 0 1388 324" version="1.1" xmlns="http://www.w3.org/2000/svg" xmlns:xlink="http://www.w3.org/1999/xlink" xml:space="preserve" style="fill-rule:evenodd;clip-rule:evenodd;stroke-linecap:round;stroke-linejoin:round;stroke-miterlimit:1.5;">
    <g id="Artboard1" transform="matrix(0.959225,0,0,0.764151,-241.75,780.962)">
        <rect x="252.027" y="-1022" width="1446.97" height="424" style="fill:none;"/>
        <g transform="matrix(1.25794,0,0,1.57907,-424.88,-1570.56)">
            <path d="M552.197,544L649.586,600L649.586,474.328L552.197,418L552.197,544Z" style="fill:rgb(1,194,202);"/>
        </g>
        <g transform="matrix(1.25794,0,0,1.57907,107.228,-1803.17)">
            <g transform="matrix(1,0,0,1,-223.803,147.306)">
                <path d="M353,485L353,417" style="fill:none;stroke:rgb(1,194,202);stroke-width:20px;"/>
            </g>
            <g transform="matrix(-1,0,0,1,676.974,147.306)">
                <path d="M353,485L353,417" style="fill:none;stroke:rgb(1,194,202);stroke-width:20px;"/>
            </g>
            <g transform="matrix(-1,-1.22465e-16,1.22465e-16,-1,676.974,1107.96)">
                <path d="M353,417L450.388,360.656L353,417Z" style="fill:none;stroke:rgb(1,194,202);stroke-width:20px;"/>
            </g>
            <g transform="matrix(1,1.22465e-16,1.22465e-16,-1,-223.803,1107.96)">
                <path d="M353,417L450.388,360.656L353,417Z" style="fill:none;stroke:rgb(1,194,202);stroke-width:20px;"/>
            </g>
            <g transform="matrix(-1,-1.22465e-16,1.22465e-16,-1,676.974,1107.96)">
                <path d="M353,485L353,417" style="fill:none;stroke:rgb(1,194,202);stroke-width:20px;"/>
            </g>
            <g transform="matrix(1,1.22465e-16,1.22465e-16,-1,-223.803,1107.96)">
                <path d="M353,485L353,417" style="fill:none;stroke:rgb(1,194,202);stroke-width:20px;"/>
            </g>
            <g transform="matrix(1,0,0,1,-223.803,147.306)">
                <path d="M353,417L450.388,474.552L450.388,600" style="fill:none;stroke:rgb(1,194,202);stroke-width:20px;"/>
            </g>
            <g transform="matrix(1,0,0,1,-223.803,147.306)">
                <path d="M353,417L450.388,360.656L353,417Z" style="fill:none;stroke:rgb(1,194,202);stroke-width:20px;"/>
            </g>
            <g transform="matrix(-1,0,0,1,676.974,147.306)">
                <path d="M353,417L450.388,360.656L353,417Z" style="fill:none;stroke:rgb(1,194,202);stroke-width:20px;"/>
            </g>
            <g transform="matrix(1,0,0,1,-223.803,147.306)">
                <path d="M353,485L353,417" style="fill:none;stroke:rgb(1,194,202);stroke-width:20px;"/>
            </g>
            <g transform="matrix(-1,0,0,1,676.974,147.306)">
                <path d="M353,485L353,417" style="fill:none;stroke:rgb(1,194,202);stroke-width:20px;"/>
            </g>
        </g>
        <g transform="matrix(2.38643,0,0,2.99564,-255.839,-1538.91)">
            <path d="M356.614,260.697C354.334,259.617 352.642,258.381 351.538,256.989C350.434,255.597 349.882,254.445 349.882,253.533C349.882,253.053 350.05,252.681 350.386,252.417C350.722,252.153 351.082,252.021 351.466,252.021L354.49,252.021C354.778,252.021 355.006,252.069 355.174,252.165C355.342,252.261 355.57,252.477 355.858,252.813C356.962,254.157 358.198,255.213 359.566,255.981C360.934,256.749 362.77,257.133 365.074,257.133C367.666,257.133 369.742,256.653 371.302,255.693C372.862,254.733 373.642,253.341 373.642,251.517C373.642,250.317 373.306,249.357 372.634,248.637C371.962,247.917 370.846,247.269 369.286,246.693C367.726,246.117 365.41,245.493 362.338,244.821C358.162,243.909 355.21,242.589 353.482,240.861C351.754,239.133 350.89,236.901 350.89,234.165C350.89,232.389 351.418,230.673 352.474,229.017C353.53,227.361 355.102,226.017 357.19,224.985C359.278,223.953 361.762,223.437 364.642,223.437C367.666,223.437 370.246,223.941 372.382,224.949C374.518,225.957 376.126,227.133 377.206,228.477C378.286,229.821 378.826,230.949 378.826,231.861C378.826,232.293 378.67,232.653 378.358,232.941C378.046,233.229 377.674,233.373 377.242,233.373L374.506,233.373C373.834,233.373 373.354,233.109 373.066,232.581C372.25,231.669 371.566,230.961 371.014,230.457C370.462,229.953 369.658,229.521 368.602,229.161C367.546,228.801 366.226,228.621 364.642,228.621C362.29,228.621 360.49,229.113 359.242,230.097C357.994,231.081 357.37,232.389 357.37,234.021C357.37,235.029 357.634,235.881 358.162,236.577C358.69,237.273 359.698,237.921 361.186,238.521C362.674,239.121 364.882,239.733 367.81,240.357C372.37,241.317 375.598,242.685 377.494,244.461C379.39,246.237 380.338,248.517 380.338,251.301C380.338,253.365 379.75,255.237 378.574,256.917C377.398,258.597 375.646,259.917 373.318,260.877C370.99,261.837 368.218,262.317 365.002,262.317C361.69,262.317 358.894,261.777 356.614,260.697Z" style="fill:rgb(1,194,202);fill-rule:nonzero;"/>
            <path d="M394.054,216.633C393.742,216.321 393.586,215.925 393.586,215.445L393.586,211.701C393.586,211.221 393.742,210.813 394.054,210.477C394.366,210.141 394.762,209.973 395.242,209.973L399.49,209.973C399.97,209.973 400.378,210.141 400.714,210.477C401.05,210.813 401.218,211.221 401.218,211.701L401.218,215.445C401.218,215.925 401.05,216.321 400.714,216.633C400.378,216.945 399.97,217.101 399.49,217.101L395.242,217.101C394.762,217.101 394.366,216.945 394.054,216.633ZM394.63,261.129C394.318,260.817 394.162,260.421 394.162,259.941L394.162,225.813C394.162,225.333 394.318,224.937 394.63,224.625C394.942,224.313 395.338,224.157 395.818,224.157L398.986,224.157C399.466,224.157 399.862,224.313 400.174,224.625C400.486,224.937 400.642,225.333 400.642,225.813L400.642,259.941C400.642,260.421 400.486,260.817 400.174,261.129C399.862,261.441 399.466,261.597 398.986,261.597L395.818,261.597C395.338,261.597 394.942,261.441 394.63,261.129Z" style="fill:rgb(1,194,202);fill-rule:nonzero;"/>
            <path d="M417.31,261.129C416.998,260.817 416.842,260.421 416.842,259.941L416.842,225.813C416.842,225.333 416.998,224.937 417.31,224.625C417.622,224.313 418.018,224.157 418.498,224.157L421.522,224.157C422.002,224.157 422.386,224.313 422.674,224.625C422.962,224.937 423.106,225.333 423.106,225.813L423.106,228.261C425.698,225.045 429.202,223.437 433.618,223.437C438.898,223.437 442.642,225.645 444.85,230.061C446.002,228.045 447.646,226.437 449.782,225.237C451.918,224.037 454.306,223.437 456.946,223.437C460.882,223.437 464.098,224.781 466.594,227.469C469.09,230.157 470.338,234.045 470.338,239.133L470.338,259.941C470.338,260.421 470.182,260.817 469.87,261.129C469.558,261.441 469.162,261.597 468.682,261.597L465.586,261.597C465.106,261.597 464.71,261.441 464.398,261.129C464.086,260.817 463.93,260.421 463.93,259.941L463.93,239.781C463.93,235.941 463.138,233.193 461.554,231.537C459.97,229.881 457.882,229.053 455.29,229.053C452.986,229.053 451.006,229.905 449.35,231.609C447.694,233.313 446.866,236.037 446.866,239.781L446.866,259.941C446.866,260.421 446.71,260.817 446.398,261.129C446.086,261.441 445.69,261.597 445.21,261.597L442.042,261.597C441.562,261.597 441.166,261.441 440.854,261.129C440.542,260.817 440.386,260.421 440.386,259.941L440.386,239.781C440.386,235.989 439.558,233.253 437.902,231.573C436.246,229.893 434.194,229.053 431.746,229.053C429.442,229.053 427.462,229.893 425.806,231.573C424.15,233.253 423.322,235.965 423.322,239.709L423.322,259.941C423.322,260.421 423.166,260.817 422.854,261.129C422.542,261.441 422.146,261.597 421.666,261.597L418.498,261.597C418.018,261.597 417.622,261.441 417.31,261.129Z" style="fill:rgb(1,194,202);fill-rule:nonzero;"/>
            <path d="M486.718,274.845C486.406,274.557 486.25,274.149 486.25,273.621L486.25,225.813C486.25,225.285 486.406,224.877 486.718,224.589C487.03,224.301 487.426,224.157 487.906,224.157L490.93,224.157C491.458,224.157 491.866,224.301 492.154,224.589C492.442,224.877 492.586,225.285 492.586,225.813L492.586,228.981C495.37,225.285 499.33,223.437 504.466,223.437C509.506,223.437 513.286,225.033 515.806,228.225C518.326,231.417 519.658,235.485 519.802,240.429C519.85,240.957 519.874,241.773 519.874,242.877C519.874,243.981 519.85,244.797 519.802,245.325C519.658,250.221 518.326,254.277 515.806,257.493C513.286,260.709 509.506,262.317 504.466,262.317C499.33,262.317 495.442,260.493 492.802,256.845L492.802,273.621C492.802,274.101 492.646,274.497 492.334,274.809C492.022,275.121 491.626,275.277 491.146,275.277L487.906,275.277C487.426,275.277 487.03,275.133 486.718,274.845ZM510.658,253.461C512.242,251.301 513.106,248.469 513.25,244.965C513.298,244.485 513.322,243.789 513.322,242.877C513.322,233.661 509.914,229.053 503.098,229.053C499.738,229.053 497.206,230.169 495.502,232.401C493.798,234.633 492.898,237.261 492.802,240.285C492.754,240.813 492.73,241.749 492.73,243.093C492.73,244.437 492.754,245.373 492.802,245.901C492.898,248.829 493.822,251.361 495.574,253.497C497.326,255.633 499.834,256.701 503.098,256.701C506.554,256.701 509.074,255.621 510.658,253.461Z" style="fill:rgb(1,194,202);fill-rule:nonzero;"/>
            <path d="M534.886,261.129C534.574,260.817 534.418,260.421 534.418,259.941L534.418,212.133C534.418,211.605 534.574,211.197 534.886,210.909C535.198,210.621 535.594,210.477 536.074,210.477L539.242,210.477C539.722,210.477 540.118,210.633 540.43,210.945C540.742,211.257 540.898,211.653 540.898,212.133L540.898,259.941C540.898,260.421 540.742,260.817 540.43,261.129C540.118,261.441 539.722,261.597 539.242,261.597L536.074,261.597C535.594,261.597 535.198,261.441 534.886,261.129Z" style="fill:rgb(1,194,202);fill-rule:nonzero;"/>
            <path d="M560.194,257.745C557.266,254.697 555.658,250.533 555.37,245.253L555.298,242.805L555.37,240.429C555.658,235.245 557.266,231.117 560.194,228.045C563.122,224.973 567.034,223.437 571.93,223.437C577.21,223.437 581.302,225.117 584.206,228.477C587.11,231.837 588.562,236.397 588.562,242.157L588.562,243.453C588.562,243.933 588.406,244.329 588.094,244.641C587.782,244.953 587.386,245.109 586.906,245.109L561.922,245.109L561.922,245.757C562.066,248.877 563.026,251.541 564.802,253.749C566.578,255.957 568.93,257.061 571.858,257.061C574.114,257.061 575.95,256.617 577.366,255.729C578.782,254.841 579.85,253.917 580.57,252.957C581.002,252.381 581.338,252.033 581.578,251.913C581.818,251.793 582.226,251.733 582.802,251.733L585.97,251.733C586.402,251.733 586.774,251.853 587.086,252.093C587.398,252.333 587.554,252.645 587.554,253.029C587.554,254.085 586.906,255.357 585.61,256.845C584.314,258.333 582.478,259.617 580.102,260.697C577.726,261.777 575.002,262.317 571.93,262.317C567.034,262.317 563.122,260.793 560.194,257.745ZM582.01,240.213L582.01,239.997C582.01,236.637 581.098,233.901 579.274,231.789C577.45,229.677 575.002,228.621 571.93,228.621C568.81,228.621 566.362,229.677 564.586,231.789C562.81,233.901 561.922,236.637 561.922,239.997L561.922,240.213L582.01,240.213Z" style="fill:rgb(1,194,202);fill-rule:nonzero;"/>
            <path d="M607.174,260.697C604.894,259.617 603.202,258.381 602.098,256.989C600.994,255.597 600.442,254.445 600.442,253.533C600.442,253.053 600.61,252.681 600.946,252.417C601.282,252.153 601.642,252.021 602.026,252.021L605.05,252.021C605.338,252.021 605.566,252.069 605.734,252.165C605.902,252.261 606.13,252.477 606.418,252.813C607.522,254.157 608.758,255.213 610.126,255.981C611.494,256.749 613.33,257.133 615.634,257.133C618.226,257.133 620.302,256.653 621.862,255.693C623.422,254.733 624.202,253.341 624.202,251.517C624.202,250.317 623.866,249.357 623.194,248.637C622.522,247.917 621.406,247.269 619.846,246.693C618.286,246.117 615.97,245.493 612.898,244.821C608.722,243.909 605.77,242.589 604.042,240.861C602.314,239.133 601.45,236.901 601.45,234.165C601.45,232.389 601.978,230.673 603.034,229.017C604.09,227.361 605.662,226.017 607.75,224.985C609.838,223.953 612.322,223.437 615.202,223.437C618.226,223.437 620.806,223.941 622.942,224.949C625.078,225.957 626.686,227.133 627.766,228.477C628.846,229.821 629.386,230.949 629.386,231.861C629.386,232.293 629.23,232.653 628.918,232.941C628.606,233.229 628.234,233.373 627.802,233.373L625.066,233.373C624.394,233.373 623.914,233.109 623.626,232.581C622.81,231.669 622.126,230.961 621.574,230.457C621.022,229.953 620.218,229.521 619.162,229.161C618.106,228.801 616.786,228.621 615.202,228.621C612.85,228.621 611.05,229.113 609.802,230.097C608.554,231.081 607.93,232.389 607.93,234.021C607.93,235.029 608.194,235.881 608.722,236.577C609.25,237.273 610.258,237.921 611.746,238.521C613.234,239.121 615.442,239.733 618.37,240.357C622.93,241.317 626.158,242.685 628.054,244.461C629.95,246.237 630.898,248.517 630.898,251.301C630.898,253.365 630.31,255.237 629.134,256.917C627.958,258.597 626.206,259.917 623.878,260.877C621.55,261.837 618.778,262.317 615.562,262.317C612.25,262.317 609.454,261.777 607.174,260.697Z" style="fill:rgb(1,194,202);fill-rule:nonzero;"/>
            <path d="M645.262,274.845C644.95,274.557 644.794,274.149 644.794,273.621L644.794,225.813C644.794,225.285 644.95,224.877 645.262,224.589C645.574,224.301 645.97,224.157 646.45,224.157L649.474,224.157C650.002,224.157 650.41,224.301 650.698,224.589C650.986,224.877 651.13,225.285 651.13,225.813L651.13,228.981C653.914,225.285 657.874,223.437 663.01,223.437C668.05,223.437 671.83,225.033 674.35,228.225C676.87,231.417 678.202,235.485 678.346,240.429C678.394,240.957 678.418,241.773 678.418,242.877C678.418,243.981 678.394,244.797 678.346,245.325C678.202,250.221 676.87,254.277 674.35,257.493C671.83,260.709 668.05,262.317 663.01,262.317C657.874,262.317 653.986,260.493 651.346,256.845L651.346,273.621C651.346,274.101 651.19,274.497 650.878,274.809C650.566,275.121 650.17,275.277 649.69,275.277L646.45,275.277C645.97,275.277 645.574,275.133 645.262,274.845ZM669.202,253.461C670.786,251.301 671.65,248.469 671.794,244.965C671.842,244.485 671.866,243.789 671.866,242.877C671.866,233.661 668.458,229.053 661.642,229.053C658.282,229.053 655.75,230.169 654.046,232.401C652.342,234.633 651.442,237.261 651.346,240.285C651.298,240.813 651.274,241.749 651.274,243.093C651.274,244.437 651.298,245.373 651.346,245.901C651.442,248.829 652.366,251.361 654.118,253.497C655.87,255.633 658.378,256.701 661.642,256.701C665.098,256.701 667.618,255.621 669.202,253.461Z" style="fill:rgb(1,194,202);fill-rule:nonzero;"/>
            <path d="M696.742,260.877C694.75,259.917 693.166,258.609 691.99,256.953C690.814,255.297 690.226,253.461 690.226,251.445C690.226,248.277 691.522,245.685 694.114,243.669C696.706,241.653 700.234,240.309 704.698,239.637L715.498,238.125L715.498,236.037C715.498,231.093 712.642,228.621 706.93,228.621C704.722,228.621 702.946,229.065 701.602,229.953C700.258,230.841 699.274,231.885 698.65,233.085C698.458,233.565 698.254,233.889 698.038,234.057C697.822,234.225 697.522,234.309 697.138,234.309L694.33,234.309C693.898,234.309 693.526,234.153 693.214,233.841C692.902,233.529 692.746,233.157 692.746,232.725C692.746,231.621 693.262,230.337 694.294,228.873C695.326,227.409 696.922,226.137 699.082,225.057C701.242,223.977 703.882,223.437 707.002,223.437C712.378,223.437 716.23,224.685 718.558,227.181C720.886,229.677 722.05,232.797 722.05,236.541L722.05,259.941C722.05,260.421 721.894,260.817 721.582,261.129C721.27,261.441 720.874,261.597 720.394,261.597L717.226,261.597C716.746,261.597 716.362,261.441 716.074,261.129C715.786,260.817 715.642,260.421 715.642,259.941L715.642,256.773C714.586,258.357 713.05,259.677 711.034,260.733C709.018,261.789 706.426,262.317 703.258,262.317C700.906,262.317 698.734,261.837 696.742,260.877ZM712.474,253.965C714.49,251.901 715.498,248.901 715.498,244.965L715.498,242.949L707.074,244.173C703.618,244.653 701.002,245.469 699.226,246.621C697.45,247.773 696.562,249.213 696.562,250.941C696.562,252.909 697.366,254.421 698.974,255.477C700.582,256.533 702.49,257.061 704.698,257.061C707.866,257.061 710.458,256.029 712.474,253.965Z" style="fill:rgb(1,194,202);fill-rule:nonzero;"/>
            <path d="M740.842,257.961C737.962,255.057 736.45,250.989 736.306,245.757L736.234,242.877L736.306,239.997C736.45,234.765 737.962,230.697 740.842,227.793C743.722,224.889 747.73,223.437 752.866,223.437C756.322,223.437 759.238,224.049 761.614,225.273C763.99,226.497 765.766,228.021 766.942,229.845C768.118,231.669 768.754,233.493 768.85,235.317C768.898,235.749 768.742,236.133 768.382,236.469C768.022,236.805 767.626,236.973 767.194,236.973L764.026,236.973C763.546,236.973 763.186,236.865 762.946,236.649C762.706,236.433 762.466,236.037 762.226,235.461C761.362,233.109 760.174,231.441 758.662,230.457C757.15,229.473 755.242,228.981 752.938,228.981C749.914,228.981 747.514,229.917 745.738,231.789C743.962,233.661 743.002,236.517 742.858,240.357L742.786,242.877L742.858,245.397C743.002,249.237 743.962,252.093 745.738,253.965C747.514,255.837 749.914,256.773 752.938,256.773C755.29,256.773 757.21,256.281 758.698,255.297C760.186,254.313 761.362,252.645 762.226,250.293C762.466,249.717 762.706,249.321 762.946,249.105C763.186,248.889 763.546,248.781 764.026,248.781L767.194,248.781C767.626,248.781 768.022,248.949 768.382,249.285C768.742,249.621 768.898,250.005 768.85,250.437C768.754,252.213 768.118,254.013 766.942,255.837C765.766,257.661 763.99,259.197 761.614,260.445C759.238,261.693 756.322,262.317 752.866,262.317C747.73,262.317 743.722,260.865 740.842,257.961Z" style="fill:rgb(1,194,202);fill-rule:nonzero;"/>
            <path d="M785.986,257.745C783.058,254.697 781.45,250.533 781.162,245.253L781.09,242.805L781.162,240.429C781.45,235.245 783.058,231.117 785.986,228.045C788.914,224.973 792.826,223.437 797.722,223.437C803.002,223.437 807.094,225.117 809.998,228.477C812.902,231.837 814.354,236.397 814.354,242.157L814.354,243.453C814.354,243.933 814.198,244.329 813.886,244.641C813.574,244.953 813.178,245.109 812.698,245.109L787.714,245.109L787.714,245.757C787.858,248.877 788.818,251.541 790.594,253.749C792.37,255.957 794.722,257.061 797.65,257.061C799.906,257.061 801.742,256.617 803.158,255.729C804.574,254.841 805.642,253.917 806.362,252.957C806.794,252.381 807.13,252.033 807.37,251.913C807.61,251.793 808.018,251.733 808.594,251.733L811.762,251.733C812.194,251.733 812.566,251.853 812.878,252.093C813.19,252.333 813.346,252.645 813.346,253.029C813.346,254.085 812.698,255.357 811.402,256.845C810.106,258.333 808.27,259.617 805.894,260.697C803.518,261.777 800.794,262.317 797.722,262.317C792.826,262.317 788.914,260.793 785.986,257.745ZM807.802,240.213L807.802,239.997C807.802,236.637 806.89,233.901 805.066,231.789C803.242,229.677 800.794,228.621 797.722,228.621C794.602,228.621 792.154,229.677 790.378,231.789C788.602,233.901 787.714,236.637 787.714,239.997L787.714,240.213L807.802,240.213Z" style="fill:rgb(1,194,202);fill-rule:nonzero;"/>
        </g>
    </g>
</svg>
